<svg width="464" height="464" viewBox="0 0 464 464" fill="none" xmlns="http://www.w3.org/2000/svg">
<g clip-path="url(#clip0_81_157)">
<rect width="464" height="464" fill="white"/>
<mask id="mask0_81_157" style="mask-type:alpha" maskUnits="userSpaceOnUse" x="0" y="0" width="464" height="464">
<rect width="464" height="464" fill="white"/>
</mask>
<g mask="url(#mask0_81_157)">
<g filter="url(#filter0_f_81_157)">
<mask id="mask1_81_157" style="mask-type:alpha" maskUnits="userSpaceOnUse" x="-53" y="-70" width="542" height="604">
<rect x="-53" y="-70" width="542" height="604" fill="#D9D9D9"/>
</mask>
<g mask="url(#mask1_81_157)">
<ellipse cx="272.317" cy="265.194" rx="272.752" ry="268.806" fill="#DCF4E8"/>
<ellipse cx="45.7048" cy="110.289" rx="264.575" ry="279.22" fill="#2E7D52"/>
<ellipse cx="368.101" cy="-4.26306" rx="176.968" ry="184.194" fill="#8ECFB2"/>
<ellipse cx="448.7" cy="556.78" rx="257.567" ry="290.935" fill="#82DCC8"/>
<ellipse cx="-48.4332" cy="463.935" rx="257.567" ry="290.935" fill="#68AF85"/>
</g>
</g>
</g>
<rect x="82.5" y="82.5" width="299" height="299" rx="19.5" fill="#FFFEFE" fill-opacity="0.2" stroke="white"/>
<path d="M208.675 308V301.7H209.773V308H208.675ZM212.252 308V301.7H213.44L216.1 306.015V301.7H217.198V308H216.014L213.35 303.684V308H212.252ZM221.809 308.117C221.461 308.117 221.127 308.063 220.806 307.955C220.488 307.844 220.209 307.686 219.969 307.482C219.729 307.275 219.556 307.028 219.451 306.74L220.482 306.362C220.524 306.482 220.609 306.591 220.738 306.69C220.867 306.789 221.025 306.869 221.211 306.929C221.397 306.989 221.596 307.019 221.809 307.019C222.028 307.019 222.232 306.986 222.421 306.92C222.613 306.851 222.768 306.756 222.885 306.636C223.002 306.513 223.06 306.371 223.06 306.209C223.06 306.044 222.999 305.909 222.876 305.804C222.753 305.696 222.595 305.61 222.403 305.547C222.211 305.484 222.013 305.436 221.809 305.403C221.362 305.334 220.962 305.228 220.608 305.084C220.254 304.94 219.973 304.74 219.766 304.485C219.562 304.23 219.46 303.9 219.46 303.495C219.46 303.114 219.57 302.781 219.789 302.496C220.008 302.211 220.296 301.989 220.653 301.83C221.01 301.671 221.395 301.592 221.809 301.592C222.154 301.592 222.487 301.646 222.808 301.754C223.129 301.862 223.41 302.019 223.65 302.226C223.893 302.433 224.067 302.682 224.172 302.973L223.137 303.347C223.095 303.227 223.009 303.118 222.88 303.019C222.751 302.919 222.594 302.841 222.408 302.784C222.222 302.724 222.022 302.694 221.809 302.694C221.596 302.691 221.394 302.726 221.202 302.798C221.013 302.867 220.858 302.961 220.738 303.081C220.618 303.201 220.558 303.339 220.558 303.495C220.558 303.696 220.614 303.848 220.725 303.95C220.839 304.052 220.99 304.127 221.179 304.175C221.368 304.22 221.578 304.262 221.809 304.301C222.229 304.367 222.618 304.478 222.975 304.634C223.332 304.79 223.618 304.998 223.834 305.259C224.05 305.517 224.158 305.834 224.158 306.209C224.158 306.59 224.05 306.924 223.834 307.212C223.618 307.497 223.332 307.719 222.975 307.878C222.618 308.038 222.229 308.117 221.809 308.117ZM226.579 308V301.7H227.677V308H226.579ZM233.072 308.117C232.634 308.117 232.226 308.031 231.848 307.86C231.473 307.689 231.146 307.454 230.867 307.154C230.588 306.851 230.369 306.503 230.21 306.11C230.054 305.714 229.976 305.291 229.976 304.841C229.976 304.367 230.06 303.932 230.228 303.536C230.399 303.14 230.632 302.796 230.926 302.505C231.22 302.214 231.553 301.989 231.925 301.83C232.3 301.671 232.69 301.592 233.095 301.592C233.548 301.592 233.987 301.698 234.413 301.911C234.842 302.121 235.22 302.447 235.547 302.888L234.566 303.414C234.365 303.168 234.134 302.985 233.873 302.865C233.615 302.742 233.351 302.681 233.081 302.681C232.817 302.681 232.564 302.735 232.321 302.843C232.081 302.951 231.866 303.104 231.677 303.302C231.491 303.497 231.344 303.728 231.236 303.995C231.128 304.259 231.074 304.548 231.074 304.863C231.074 305.16 231.127 305.441 231.232 305.705C231.337 305.966 231.481 306.195 231.664 306.393C231.85 306.588 232.064 306.741 232.307 306.852C232.55 306.963 232.811 307.019 233.09 307.019C233.276 307.019 233.458 306.99 233.635 306.933C233.815 306.873 233.983 306.788 234.139 306.677C234.298 306.566 234.439 306.431 234.562 306.272C234.688 306.113 234.793 305.933 234.877 305.732H233.729V304.773H236.168C236.18 305.232 236.108 305.663 235.952 306.065C235.796 306.467 235.576 306.822 235.291 307.131C235.006 307.44 234.674 307.682 234.296 307.856C233.918 308.03 233.51 308.117 233.072 308.117ZM241.962 301.7H243.06V308H241.962V305.174H239.352V308H238.254V301.7H239.352V304.076H241.962V301.7ZM250.173 301.7V302.798H248.247V308H247.149V302.798H245.223V301.7H250.173ZM254.538 308.117C254.19 308.117 253.856 308.063 253.535 307.955C253.217 307.844 252.938 307.686 252.698 307.482C252.458 307.275 252.285 307.028 252.18 306.74L253.211 306.362C253.253 306.482 253.338 306.591 253.467 306.69C253.596 306.789 253.754 306.869 253.94 306.929C254.126 306.989 254.325 307.019 254.538 307.019C254.757 307.019 254.961 306.986 255.15 306.92C255.342 306.851 255.497 306.756 255.614 306.636C255.731 306.513 255.789 306.371 255.789 306.209C255.789 306.044 255.728 305.909 255.605 305.804C255.482 305.696 255.324 305.61 255.132 305.547C254.94 305.484 254.742 305.436 254.538 305.403C254.091 305.334 253.691 305.228 253.337 305.084C252.983 304.94 252.702 304.74 252.495 304.485C252.291 304.23 252.189 303.9 252.189 303.495C252.189 303.114 252.299 302.781 252.518 302.496C252.737 302.211 253.025 301.989 253.382 301.83C253.739 301.671 254.124 301.592 254.538 301.592C254.883 301.592 255.216 301.646 255.537 301.754C255.858 301.862 256.139 302.019 256.379 302.226C256.622 302.433 256.796 302.682 256.901 302.973L255.866 303.347C255.824 303.227 255.738 303.118 255.609 303.019C255.48 302.919 255.323 302.841 255.137 302.784C254.951 302.724 254.751 302.694 254.538 302.694C254.325 302.691 254.123 302.726 253.931 302.798C253.742 302.867 253.587 302.961 253.467 303.081C253.347 303.201 253.287 303.339 253.287 303.495C253.287 303.696 253.343 303.848 253.454 303.95C253.568 304.052 253.719 304.127 253.908 304.175C254.097 304.22 254.307 304.262 254.538 304.301C254.958 304.367 255.347 304.478 255.704 304.634C256.061 304.79 256.347 304.998 256.563 305.259C256.779 305.517 256.887 305.834 256.887 306.209C256.887 306.59 256.779 306.924 256.563 307.212C256.347 307.497 256.061 307.719 255.704 307.878C255.347 308.038 254.958 308.117 254.538 308.117Z" fill="white"/>
<path opacity="0.18" d="M232 249.025C242.438 249.025 250.9 247.111 250.9 244.75C250.9 242.389 242.438 240.475 232 240.475C221.562 240.475 213.1 242.389 213.1 244.75C213.1 247.111 221.562 249.025 232 249.025Z" fill="#0A1520"/>
<path d="M232 160.675C211.75 160.675 200.95 176.35 200.95 192.025C200.95 206.275 209.05 214.825 214.45 220.525V229.075C214.45 232.875 216.25 234.775 219.85 234.775H244.15C247.75 234.775 249.55 232.875 249.55 229.075V220.525C254.95 214.825 263.05 206.275 263.05 192.025C263.05 176.35 252.25 160.675 232 160.675Z" fill="url(#paint0_radial_81_157)"/>
<path opacity="0.12" d="M232 210.55C241.693 210.55 249.55 202.256 249.55 192.025C249.55 181.794 241.693 173.5 232 173.5C222.307 173.5 214.45 181.794 214.45 192.025C214.45 202.256 222.307 210.55 232 210.55Z" fill="white"/>
<path opacity="0.5" d="M219.85 210.55C227.95 202.95 236.05 202.95 244.15 210.55" stroke="white" stroke-width="2.025" stroke-linecap="round"/>
<path opacity="0.38" d="M222.55 217.675C228.85 211.975 235.15 211.975 241.45 217.675" stroke="white" stroke-width="2.025" stroke-linecap="round"/>
<path d="M243.475 231.925H220.525C218.661 231.925 217.15 233.52 217.15 235.487C217.15 237.455 218.661 239.05 220.525 239.05H243.475C245.339 239.05 246.85 237.455 246.85 235.487C246.85 233.52 245.339 231.925 243.475 231.925Z" fill="url(#paint1_linear_81_157)"/>
<path d="M241.45 239.05H222.55C221.059 239.05 219.85 240.326 219.85 241.9C219.85 243.474 221.059 244.75 222.55 244.75H241.45C242.941 244.75 244.15 243.474 244.15 241.9C244.15 240.326 242.941 239.05 241.45 239.05Z" fill="#1B3A5C"/>
<path opacity="0.9" d="M232 154.975V149.275" stroke="#CFDECA" stroke-width="2.475" stroke-linecap="round"/>
<path opacity="0.9" d="M253.6 163.525L257.65 159.25" stroke="#CFDECA" stroke-width="2.475" stroke-linecap="round"/>
<path opacity="0.9" d="M267.1 189.175H272.5" stroke="#CFDECA" stroke-width="2.475" stroke-linecap="round"/>
<path opacity="0.9" d="M210.4 163.525L206.35 159.25" stroke="#CFDECA" stroke-width="2.475" stroke-linecap="round"/>
<path opacity="0.9" d="M196.9 189.175H191.5" stroke="#CFDECA" stroke-width="2.475" stroke-linecap="round"/>
<path opacity="0.26" d="M218.653 181.383C224.734 178.389 228.387 173.071 226.812 169.505C225.236 165.939 219.029 165.474 212.947 168.468C206.866 171.461 203.213 176.779 204.788 180.345C206.364 183.911 212.571 184.376 218.653 181.383Z" fill="white"/>
</g>
<defs>
<filter id="filter0_f_81_157" x="-173" y="-190" width="782" height="844" filterUnits="userSpaceOnUse" color-interpolation-filters="sRGB">
<feFlood flood-opacity="0" result="BackgroundImageFix"/>
<feBlend mode="normal" in="SourceGraphic" in2="BackgroundImageFix" result="shape"/>
<feGaussianBlur stdDeviation="60" result="effect1_foregroundBlur_81_157"/>
</filter>
<radialGradient id="paint0_radial_81_157" cx="0" cy="0" r="1" gradientUnits="userSpaceOnUse" gradientTransform="translate(224.548 181.423) scale(31.05 37.05)">
<stop stop-color="#A8D8C0"/>
<stop offset="0.55" stop-color="#6BAF85"/>
<stop offset="1" stop-color="#1B4A30"/>
</radialGradient>
<linearGradient id="paint1_linear_81_157" x1="217.15" y1="231.925" x2="246.85" y2="231.925" gradientUnits="userSpaceOnUse">
<stop stop-color="#3D8BCC"/>
<stop offset="1" stop-color="#1B3A5C"/>
</linearGradient>
<clipPath id="clip0_81_157">
<rect width="464" height="464" fill="white"/>
</clipPath>
</defs>
</svg>
