<svg width="464" height="464" viewBox="0 0 464 464" fill="none" xmlns="http://www.w3.org/2000/svg">
<g clip-path="url(#clip0_81_155)">
<rect width="464" height="464" fill="white"/>
<mask id="mask0_81_155" style="mask-type:alpha" maskUnits="userSpaceOnUse" x="0" y="0" width="464" height="464">
<rect width="464" height="464" fill="white"/>
</mask>
<g mask="url(#mask0_81_155)">
<g filter="url(#filter0_f_81_155)">
<mask id="mask1_81_155" style="mask-type:alpha" maskUnits="userSpaceOnUse" x="-53" y="-70" width="542" height="604">
<rect x="-53" y="-70" width="542" height="604" fill="#D9D9D9"/>
</mask>
<g mask="url(#mask1_81_155)">
<ellipse cx="272.317" cy="265.194" rx="272.752" ry="268.806" fill="#FFAE20"/>
<ellipse cx="45.7048" cy="110.289" rx="264.575" ry="279.22" fill="#FE7120"/>
<ellipse cx="368.101" cy="-4.26282" rx="176.968" ry="184.194" fill="#FF856F"/>
<ellipse cx="448.7" cy="556.78" rx="257.567" ry="290.935" fill="#FF5D00"/>
<ellipse cx="31.5668" cy="411.935" rx="257.567" ry="290.935" fill="#FF5704"/>
</g>
</g>
</g>
<rect x="83.5" y="82.5" width="299" height="299" rx="19.5" fill="#FFFEFE" fill-opacity="0.2" stroke="white"/>
<path d="M210.808 309.117C210.46 309.117 210.126 309.063 209.805 308.955C209.487 308.844 209.208 308.686 208.968 308.482C208.728 308.275 208.555 308.028 208.45 307.74L209.481 307.362C209.523 307.482 209.608 307.591 209.737 307.69C209.866 307.789 210.024 307.869 210.21 307.929C210.396 307.989 210.595 308.019 210.808 308.019C211.027 308.019 211.231 307.986 211.42 307.92C211.612 307.851 211.767 307.756 211.884 307.636C212.001 307.513 212.059 307.371 212.059 307.209C212.059 307.044 211.998 306.909 211.875 306.804C211.752 306.696 211.594 306.61 211.402 306.547C211.21 306.484 211.012 306.436 210.808 306.403C210.361 306.334 209.961 306.228 209.607 306.084C209.253 305.94 208.972 305.74 208.765 305.485C208.561 305.23 208.459 304.9 208.459 304.495C208.459 304.114 208.569 303.781 208.788 303.496C209.007 303.211 209.295 302.989 209.652 302.83C210.009 302.671 210.394 302.592 210.808 302.592C211.153 302.592 211.486 302.646 211.807 302.754C212.128 302.862 212.409 303.019 212.648 303.226C212.892 303.433 213.066 303.682 213.171 303.973L212.136 304.347C212.094 304.227 212.008 304.118 211.879 304.019C211.75 303.919 211.593 303.841 211.407 303.784C211.221 303.724 211.021 303.694 210.808 303.694C210.595 303.691 210.393 303.726 210.201 303.798C210.012 303.867 209.857 303.961 209.737 304.081C209.617 304.201 209.557 304.339 209.557 304.495C209.557 304.696 209.613 304.848 209.724 304.95C209.838 305.052 209.989 305.127 210.178 305.175C210.367 305.22 210.577 305.262 210.808 305.301C211.228 305.367 211.617 305.478 211.974 305.634C212.331 305.79 212.617 305.998 212.833 306.259C213.049 306.517 213.157 306.834 213.157 307.209C213.157 307.59 213.049 307.924 212.833 308.212C212.617 308.497 212.331 308.719 211.974 308.878C211.617 309.038 211.228 309.117 210.808 309.117ZM215.443 309V302.7H217.693C218.035 302.7 218.344 302.785 218.62 302.956C218.899 303.127 219.119 303.357 219.281 303.645C219.443 303.933 219.524 304.249 219.524 304.594C219.524 304.948 219.44 305.269 219.272 305.557C219.107 305.842 218.885 306.07 218.606 306.241C218.327 306.409 218.023 306.493 217.693 306.493H216.541V309H215.443ZM216.541 305.395H217.576C217.732 305.395 217.874 305.356 218.003 305.278C218.132 305.2 218.234 305.095 218.309 304.963C218.387 304.831 218.426 304.684 218.426 304.522C218.426 304.357 218.387 304.209 218.309 304.077C218.234 303.945 218.132 303.84 218.003 303.762C217.874 303.684 217.732 303.645 217.576 303.645H216.541V305.395ZM221.607 309V302.7H225.558V303.798H222.705V305.076H224.968V306.174H222.705V307.902H225.558V309H221.607ZM227.833 309V302.7H229.021L231.68 307.015V302.7H232.778V309H231.595L228.931 304.684V309H227.833ZM235.122 309V302.7H237.21C237.645 302.7 238.051 302.782 238.429 302.947C238.81 303.109 239.145 303.336 239.433 303.627C239.724 303.915 239.95 304.249 240.112 304.63C240.277 305.008 240.36 305.415 240.36 305.85C240.36 306.285 240.277 306.693 240.112 307.074C239.95 307.452 239.724 307.786 239.433 308.077C239.145 308.365 238.81 308.592 238.429 308.757C238.051 308.919 237.645 309 237.21 309H235.122ZM236.22 307.902H237.21C237.489 307.902 237.751 307.849 237.997 307.744C238.246 307.636 238.465 307.489 238.654 307.303C238.843 307.114 238.992 306.897 239.1 306.651C239.208 306.402 239.262 306.135 239.262 305.85C239.262 305.565 239.208 305.299 239.1 305.053C238.992 304.807 238.843 304.59 238.654 304.401C238.465 304.212 238.248 304.065 238.002 303.96C237.756 303.852 237.492 303.798 237.21 303.798H236.22V307.902ZM242.485 309V302.7H243.583V309H242.485ZM246.062 309V302.7H247.25L249.909 307.015V302.7H251.007V309H249.824L247.16 304.684V309H246.062ZM256.267 309.117C255.829 309.117 255.421 309.031 255.043 308.86C254.668 308.689 254.341 308.454 254.062 308.154C253.783 307.851 253.564 307.503 253.405 307.11C253.249 306.714 253.171 306.291 253.171 305.841C253.171 305.367 253.255 304.932 253.423 304.536C253.594 304.14 253.827 303.796 254.121 303.505C254.415 303.214 254.748 302.989 255.12 302.83C255.495 302.671 255.885 302.592 256.29 302.592C256.743 302.592 257.182 302.698 257.608 302.911C258.037 303.121 258.415 303.447 258.742 303.888L257.761 304.414C257.56 304.168 257.329 303.985 257.068 303.865C256.81 303.742 256.546 303.681 256.276 303.681C256.012 303.681 255.759 303.735 255.516 303.843C255.276 303.951 255.061 304.104 254.872 304.302C254.686 304.497 254.539 304.728 254.431 304.995C254.323 305.259 254.269 305.548 254.269 305.863C254.269 306.16 254.322 306.441 254.427 306.705C254.532 306.966 254.676 307.195 254.859 307.393C255.045 307.588 255.259 307.741 255.502 307.852C255.745 307.963 256.006 308.019 256.285 308.019C256.471 308.019 256.653 307.99 256.83 307.933C257.01 307.873 257.178 307.788 257.334 307.677C257.493 307.566 257.634 307.431 257.757 307.272C257.883 307.113 257.988 306.933 258.072 306.732H256.924V305.773H259.363C259.375 306.232 259.303 306.663 259.147 307.065C258.991 307.467 258.771 307.822 258.486 308.131C258.201 308.44 257.869 308.682 257.491 308.856C257.113 309.03 256.705 309.117 256.267 309.117Z" fill="white"/>
<path opacity="0.18" d="M233.5 242.931C251.574 242.931 266.225 240.522 266.225 237.55C266.225 234.578 251.574 232.169 233.5 232.169C215.427 232.169 200.775 234.578 200.775 237.55C200.775 240.522 215.427 242.931 233.5 242.931Z" fill="#0A1520"/>
<path opacity="0.25" d="M233.5 212.95C256.503 212.95 275.15 208.82 275.15 203.725C275.15 198.63 256.503 194.5 233.5 194.5C210.497 194.5 191.85 198.63 191.85 203.725C191.85 208.82 210.497 212.95 233.5 212.95Z" fill="#0A1520"/>
<path opacity="0.7" d="M233.5 203.725L275.15 194.5C275.221 203.197 272.742 211.712 268.039 218.924C263.337 226.137 256.631 231.707 248.805 234.903C240.979 238.099 232.4 238.769 224.198 236.827C215.997 234.884 208.556 230.419 202.858 224.02L233.5 203.725Z" fill="#0D2040"/>
<path opacity="0.7" d="M233.5 203.725L202.857 224.02C197.655 218.207 194.104 211.023 192.596 203.258C191.088 195.494 191.682 187.45 194.311 180.012C196.941 172.573 201.504 166.029 207.5 161.098C213.495 156.168 220.691 153.042 228.294 152.065L233.5 203.725Z" fill="#0D2B1A"/>
<path opacity="0.7" d="M233.5 203.725L228.294 152.065C234.134 151.304 240.064 151.832 245.693 153.613C251.322 155.394 256.521 158.388 260.949 162.398C265.376 166.408 268.931 171.342 271.379 176.875C273.827 182.409 275.112 188.416 275.15 194.5L233.5 203.725Z" fill="#0A1E2B"/>
<path d="M233.5 194.5H275.15C275.221 203.197 272.742 211.712 268.039 218.924C263.337 226.137 256.631 231.707 248.805 234.903C240.979 238.099 232.4 238.769 224.198 236.827C215.997 234.884 208.556 230.419 202.858 224.02L233.5 194.5Z" fill="url(#paint0_linear_81_155)"/>
<path d="M233.5 194.5L202.857 224.02C197.655 218.207 194.104 211.023 192.596 203.258C191.088 195.494 191.682 187.45 194.311 180.012C196.941 172.573 201.504 166.029 207.5 161.098C213.495 156.168 220.691 153.042 228.294 152.065L233.5 194.5Z" fill="url(#paint1_linear_81_155)"/>
<path d="M233.5 194.5L228.294 152.065C234.134 151.304 240.064 151.832 245.693 153.613C251.322 155.394 256.521 158.388 260.949 162.398C265.376 166.408 268.931 171.342 271.379 176.875C273.827 182.409 275.112 188.416 275.15 194.5H233.5Z" fill="url(#paint2_linear_81_155)"/>
<path opacity="0.4" d="M233.5 194.5H275.15" stroke="white" stroke-width="0.9"/>
<path opacity="0.4" d="M233.5 194.5L202.858 224.02" stroke="white" stroke-width="0.9"/>
<path opacity="0.4" d="M233.5 194.5L228.294 152.065" stroke="white" stroke-width="0.9"/>
<path d="M233.5 211.412C242.537 211.412 249.862 203.84 249.862 194.5C249.862 185.159 242.537 177.587 233.5 177.587C224.463 177.587 217.137 185.159 217.137 194.5C217.137 203.84 224.463 211.412 233.5 211.412Z" fill="url(#paint3_linear_81_155)"/>
<path opacity="0.6" d="M228.822 193.499C231.91 192.338 233.844 189.779 233.141 187.784C232.439 185.789 229.366 185.114 226.278 186.275C223.19 187.437 221.256 189.996 221.959 191.991C222.661 193.986 225.734 194.661 228.822 193.499Z" fill="white"/>
</g>
<defs>
<filter id="filter0_f_81_155" x="-173" y="-190" width="782" height="844" filterUnits="userSpaceOnUse" color-interpolation-filters="sRGB">
<feFlood flood-opacity="0" result="BackgroundImageFix"/>
<feBlend mode="normal" in="SourceGraphic" in2="BackgroundImageFix" result="shape"/>
<feGaussianBlur stdDeviation="60" result="effect1_foregroundBlur_81_155"/>
</filter>
<linearGradient id="paint0_linear_81_155" x1="239.005" y1="194.5" x2="239.005" y2="237.914" gradientUnits="userSpaceOnUse">
<stop offset="0.596154" stop-color="#F06C41"/>
<stop offset="1" stop-color="#8A3E25"/>
</linearGradient>
<linearGradient id="paint1_linear_81_155" x1="212.641" y1="152.065" x2="212.641" y2="224.02" gradientUnits="userSpaceOnUse">
<stop offset="0.365385" stop-color="#FFC739"/>
<stop offset="1" stop-color="#997722"/>
</linearGradient>
<linearGradient id="paint2_linear_81_155" x1="251.722" y1="151.727" x2="251.722" y2="194.5" gradientUnits="userSpaceOnUse">
<stop offset="0.634615" stop-color="#FFD5AE"/>
<stop offset="1" stop-color="#998068"/>
</linearGradient>
<linearGradient id="paint3_linear_81_155" x1="233.5" y1="177.587" x2="233.5" y2="211.412" gradientUnits="userSpaceOnUse">
<stop stop-color="#EDF5F1"/>
<stop offset="1" stop-color="#8A8F8D"/>
</linearGradient>
<clipPath id="clip0_81_155">
<rect width="464" height="464" fill="white"/>
</clipPath>
</defs>
</svg>
