<svg width="464" height="464" viewBox="0 0 464 464" fill="none" xmlns="http://www.w3.org/2000/svg">
<g clip-path="url(#clip0_81_156)">
<rect width="464" height="464" fill="white"/>
<mask id="mask0_81_156" style="mask-type:alpha" maskUnits="userSpaceOnUse" x="0" y="0" width="464" height="464">
<rect width="464" height="464" fill="white"/>
</mask>
<g mask="url(#mask0_81_156)">
<g filter="url(#filter0_f_81_156)">
<mask id="mask1_81_156" style="mask-type:alpha" maskUnits="userSpaceOnUse" x="-53" y="-70" width="542" height="604">
<rect x="-53" y="-70" width="542" height="604" fill="#D9D9D9"/>
</mask>
<g mask="url(#mask1_81_156)">
<ellipse cx="272.317" cy="265.194" rx="272.752" ry="268.806" fill="#4EC3FD"/>
<ellipse cx="45.7047" cy="110.289" rx="264.575" ry="279.22" fill="#64ADFF"/>
<ellipse cx="368.101" cy="-4.26282" rx="176.968" ry="184.194" fill="#9ADBF4"/>
<ellipse cx="448.7" cy="556.78" rx="257.567" ry="290.935" fill="#74C7FF"/>
<ellipse cx="31.5668" cy="411.935" rx="257.567" ry="290.935" fill="#43D4F5"/>
</g>
</g>
</g>
<rect x="82.5" y="82.5" width="299" height="299" rx="19.5" fill="#FFFEFE" fill-opacity="0.2" stroke="white"/>
<path d="M219.456 301.117C219.018 301.117 218.61 301.031 218.232 300.86C217.857 300.689 217.53 300.454 217.251 300.154C216.972 299.851 216.753 299.503 216.594 299.11C216.438 298.714 216.36 298.291 216.36 297.841C216.36 297.367 216.444 296.932 216.612 296.536C216.783 296.14 217.016 295.796 217.31 295.505C217.604 295.214 217.937 294.989 218.309 294.83C218.684 294.671 219.074 294.592 219.479 294.592C219.932 294.592 220.371 294.698 220.797 294.911C221.226 295.121 221.604 295.447 221.931 295.888L220.95 296.414C220.749 296.168 220.518 295.985 220.257 295.865C219.999 295.742 219.735 295.681 219.465 295.681C219.201 295.681 218.948 295.735 218.705 295.843C218.465 295.951 218.25 296.104 218.061 296.302C217.875 296.497 217.728 296.728 217.62 296.995C217.512 297.259 217.458 297.548 217.458 297.863C217.458 298.16 217.511 298.441 217.616 298.705C217.721 298.966 217.865 299.195 218.048 299.393C218.234 299.588 218.448 299.741 218.691 299.852C218.934 299.963 219.195 300.019 219.474 300.019C219.66 300.019 219.842 299.99 220.019 299.933C220.199 299.873 220.367 299.788 220.522 299.677C220.682 299.566 220.823 299.431 220.946 299.272C221.072 299.113 221.177 298.933 221.261 298.732H220.113V297.773H222.552C222.564 298.232 222.492 298.663 222.336 299.065C222.18 299.467 221.96 299.822 221.675 300.131C221.39 300.44 221.058 300.682 220.68 300.856C220.302 301.03 219.894 301.117 219.456 301.117ZM227.572 301.117C227.146 301.117 226.745 301.033 226.37 300.865C225.995 300.694 225.665 300.458 225.38 300.158C225.095 299.858 224.872 299.512 224.71 299.119C224.548 298.723 224.467 298.3 224.467 297.85C224.467 297.4 224.548 296.978 224.71 296.585C224.872 296.189 225.095 295.841 225.38 295.541C225.665 295.241 225.995 295.007 226.37 294.839C226.745 294.668 227.146 294.583 227.572 294.583C228.001 294.583 228.403 294.668 228.778 294.839C229.153 295.007 229.483 295.241 229.768 295.541C230.053 295.841 230.275 296.189 230.434 296.585C230.596 296.978 230.677 297.4 230.677 297.85C230.677 298.3 230.596 298.723 230.434 299.119C230.275 299.512 230.053 299.858 229.768 300.158C229.483 300.458 229.153 300.694 228.778 300.865C228.403 301.033 228.001 301.117 227.572 301.117ZM227.572 300.019C227.848 300.019 228.107 299.962 228.35 299.848C228.593 299.734 228.806 299.578 228.989 299.38C229.175 299.179 229.319 298.948 229.421 298.687C229.526 298.426 229.579 298.147 229.579 297.85C229.579 297.553 229.526 297.274 229.421 297.013C229.316 296.749 229.171 296.518 228.985 296.32C228.802 296.122 228.589 295.966 228.346 295.852C228.106 295.738 227.848 295.681 227.572 295.681C227.296 295.681 227.036 295.738 226.793 295.852C226.55 295.966 226.336 296.123 226.15 296.324C225.967 296.522 225.823 296.752 225.718 297.013C225.616 297.274 225.565 297.553 225.565 297.85C225.565 298.15 225.617 298.43 225.722 298.691C225.827 298.952 225.971 299.183 226.154 299.384C226.34 299.582 226.553 299.738 226.793 299.852C227.036 299.963 227.296 300.019 227.572 300.019ZM234.464 294.7H235.728L238.019 301H236.853L236.448 299.884H233.748L233.343 301H232.178L234.464 294.7ZM234.149 298.786H236.043L235.094 296.189L234.149 298.786ZM240.034 301V294.7H241.132V299.902H243.755V301H240.034ZM248.273 301.117C247.925 301.117 247.59 301.063 247.269 300.955C246.951 300.844 246.672 300.686 246.432 300.482C246.192 300.275 246.02 300.028 245.915 299.74L246.945 299.362C246.987 299.482 247.073 299.591 247.202 299.69C247.331 299.789 247.488 299.869 247.674 299.929C247.86 299.989 248.06 300.019 248.273 300.019C248.492 300.019 248.696 299.986 248.885 299.92C249.077 299.851 249.231 299.756 249.348 299.636C249.465 299.513 249.524 299.371 249.524 299.209C249.524 299.044 249.462 298.909 249.339 298.804C249.216 298.696 249.059 298.61 248.867 298.547C248.675 298.484 248.477 298.436 248.273 298.403C247.826 298.334 247.425 298.228 247.071 298.084C246.717 297.94 246.437 297.74 246.23 297.485C246.026 297.23 245.924 296.9 245.924 296.495C245.924 296.114 246.033 295.781 246.252 295.496C246.471 295.211 246.759 294.989 247.116 294.83C247.473 294.671 247.859 294.592 248.273 294.592C248.618 294.592 248.951 294.646 249.272 294.754C249.593 294.862 249.873 295.019 250.113 295.226C250.356 295.433 250.53 295.682 250.635 295.973L249.6 296.347C249.558 296.227 249.473 296.118 249.344 296.019C249.215 295.919 249.057 295.841 248.871 295.784C248.685 295.724 248.486 295.694 248.273 295.694C248.06 295.691 247.857 295.726 247.665 295.798C247.476 295.867 247.322 295.961 247.202 296.081C247.082 296.201 247.022 296.339 247.022 296.495C247.022 296.696 247.077 296.848 247.188 296.95C247.302 297.052 247.454 297.127 247.643 297.175C247.832 297.22 248.042 297.262 248.273 297.301C248.693 297.367 249.081 297.478 249.438 297.634C249.795 297.79 250.082 297.998 250.298 298.259C250.514 298.517 250.622 298.834 250.622 299.209C250.622 299.59 250.514 299.924 250.298 300.212C250.082 300.497 249.795 300.719 249.438 300.878C249.081 301.038 248.693 301.117 248.273 301.117Z" fill="#5A7A8A"/>
<path opacity="0.18" d="M232 241.125C249.314 241.125 263.35 238.853 263.35 236.05C263.35 233.247 249.314 230.975 232 230.975C214.686 230.975 200.65 233.247 200.65 236.05C200.65 238.853 214.686 241.125 232 241.125Z" fill="#0A1520"/>
<path d="M232 236.05C254.823 236.05 273.325 217.224 273.325 194C273.325 170.776 254.823 151.95 232 151.95C209.177 151.95 190.675 170.776 190.675 194C190.675 217.224 209.177 236.05 232 236.05Z" fill="#1CAAFE"/>
<path d="M232 227.35C250.101 227.35 264.775 212.419 264.775 194C264.775 175.581 250.101 160.65 232 160.65C213.899 160.65 199.225 175.581 199.225 194C199.225 212.419 213.899 227.35 232 227.35Z" fill="#EDF5F1"/>
<path d="M232 224.45C248.527 224.45 261.925 210.817 261.925 194C261.925 177.183 248.527 163.55 232 163.55C215.473 163.55 202.075 177.183 202.075 194C202.075 210.817 215.473 224.45 232 224.45Z" fill="url(#paint0_radial_81_156)"/>
<path d="M232 215.75C243.805 215.75 253.375 206.012 253.375 194C253.375 181.988 243.805 172.25 232 172.25C220.195 172.25 210.625 181.988 210.625 194C210.625 206.012 220.195 215.75 232 215.75Z" fill="#EDF5F1"/>
<path d="M232 212.85C242.231 212.85 250.525 204.41 250.525 194C250.525 183.589 242.231 175.15 232 175.15C221.769 175.15 213.475 183.589 213.475 194C213.475 204.41 221.769 212.85 232 212.85Z" fill="#2F5885"/>
<path d="M232 202.7C236.722 202.7 240.55 198.805 240.55 194C240.55 189.195 236.722 185.3 232 185.3C227.278 185.3 223.45 189.195 223.45 194C223.45 198.805 227.278 202.7 232 202.7Z" fill="#CFDECA"/>
<path d="M193.525 233.15L223.45 202.7" stroke="url(#paint1_linear_81_156)" stroke-width="4.5" stroke-linecap="round"/>
<path d="M226.3 198.35L212.05 201.25L223.45 212.85L226.3 198.35Z" fill="#5AAEE0"/>
<path opacity="0.18" d="M214.188 175.629C223.048 170.423 228.636 163.393 226.668 159.925C224.701 156.457 215.923 157.866 207.063 163.071C198.202 168.277 192.614 175.307 194.582 178.775C196.549 182.243 205.327 180.834 214.188 175.629Z" fill="white"/>
</g>
<defs>
<filter id="filter0_f_81_156" x="-173" y="-190" width="782" height="844" filterUnits="userSpaceOnUse" color-interpolation-filters="sRGB">
<feFlood flood-opacity="0" result="BackgroundImageFix"/>
<feBlend mode="normal" in="SourceGraphic" in2="BackgroundImageFix" result="shape"/>
<feGaussianBlur stdDeviation="60" result="effect1_foregroundBlur_81_156"/>
</filter>
<radialGradient id="paint0_radial_81_156" cx="0" cy="0" r="1" gradientUnits="userSpaceOnUse" gradientTransform="translate(226.015 187.91) scale(29.925 30.45)">
<stop stop-color="#8ECFB2"/>
<stop offset="1" stop-color="#2E7D52"/>
</radialGradient>
<linearGradient id="paint1_linear_81_156" x1="193.525" y1="233.15" x2="223.97" y2="203.229" gradientUnits="userSpaceOnUse">
<stop stop-color="#CFDECA"/>
<stop offset="1" stop-color="#5AAEE0"/>
</linearGradient>
<clipPath id="clip0_81_156">
<rect width="464" height="464" fill="white"/>
</clipPath>
</defs>
</svg>
