<svg width="464" height="464" viewBox="0 0 464 464" fill="none" xmlns="http://www.w3.org/2000/svg">
<g clip-path="url(#clip0_81_154)">
<rect width="464" height="464" fill="white"/>
<mask id="mask0_81_154" style="mask-type:alpha" maskUnits="userSpaceOnUse" x="0" y="0" width="464" height="464">
<rect width="464" height="464" fill="white"/>
</mask>
<g mask="url(#mask0_81_154)">
<g filter="url(#filter0_f_81_154)">
<mask id="mask1_81_154" style="mask-type:alpha" maskUnits="userSpaceOnUse" x="-53" y="-70" width="542" height="604">
<rect x="-53" y="-70" width="542" height="604" fill="#D9D9D9"/>
</mask>
<g mask="url(#mask1_81_154)">
<ellipse cx="272.317" cy="265.194" rx="272.752" ry="268.806" fill="#FFA4F1"/>
<ellipse cx="45.7047" cy="110.289" rx="264.575" ry="279.22" fill="#F67FFF"/>
<ellipse cx="368.101" cy="-4.26282" rx="176.968" ry="184.194" fill="#FEDBFF"/>
<ellipse cx="448.7" cy="556.78" rx="257.567" ry="290.935" fill="#FDA7F6"/>
<ellipse cx="31.5668" cy="411.935" rx="257.567" ry="290.935" fill="#FBCAFF"/>
</g>
</g>
</g>
<rect x="81.5" y="82.5" width="299" height="299" rx="19.5" fill="#FFFEFE" fill-opacity="0.2" stroke="white"/>
<path d="M223.54 309V302.7H225.835C226.168 302.7 226.468 302.769 226.735 302.907C227.005 303.042 227.218 303.237 227.374 303.492C227.533 303.744 227.613 304.042 227.613 304.387C227.613 304.54 227.59 304.695 227.545 304.851C227.5 305.007 227.431 305.148 227.338 305.274C227.245 305.397 227.125 305.488 226.978 305.548C227.173 305.596 227.332 305.683 227.455 305.809C227.578 305.935 227.674 306.084 227.743 306.255C227.812 306.423 227.859 306.595 227.883 306.772C227.91 306.946 227.923 307.108 227.923 307.258C227.923 307.591 227.841 307.888 227.676 308.149C227.511 308.41 227.289 308.617 227.01 308.77C226.734 308.923 226.428 309 226.092 309H223.54ZM224.638 308.059H225.979C226.159 308.059 226.321 308.016 226.465 307.929C226.609 307.842 226.725 307.722 226.812 307.569C226.899 307.416 226.942 307.242 226.942 307.047C226.942 306.879 226.899 306.72 226.812 306.57C226.725 306.42 226.609 306.298 226.465 306.205C226.321 306.112 226.159 306.066 225.979 306.066H224.638V308.059ZM224.638 305.139H225.709C225.931 305.139 226.12 305.07 226.276 304.932C226.435 304.794 226.515 304.611 226.515 304.383C226.515 304.14 226.435 303.957 226.276 303.834C226.12 303.708 225.931 303.645 225.709 303.645H224.638V305.139ZM231.802 302.7H233.066L235.357 309H234.191L233.786 307.884H231.086L230.681 309H229.516L231.802 302.7ZM231.487 306.786H233.381L232.432 304.189L231.487 306.786ZM237.372 309V302.7H238.56L241.219 307.015V302.7H242.317V309H241.134L238.47 304.684V309H237.372ZM249.264 309H247.833L246.065 306.529L245.759 306.894V309H244.661V302.7H245.759V305.188L247.842 302.7H249.278L246.78 305.67L249.264 309Z" fill="#5A7A8A"/>
<path opacity="0.2" d="M237 255.562C258.898 255.562 276.65 253.173 276.65 250.225C276.65 247.277 258.898 244.887 237 244.887C215.102 244.887 197.35 247.277 197.35 250.225C197.35 253.173 215.102 255.562 237 255.562Z" fill="#0A1520"/>
<path d="M281.225 236.5H192.775C191.091 236.5 189.725 237.866 189.725 239.55V242.6C189.725 244.284 191.091 245.65 192.775 245.65H281.225C282.909 245.65 284.275 244.284 284.275 242.6V239.55C284.275 237.866 282.909 236.5 281.225 236.5Z" fill="#C374CB"/>
<path d="M277.413 231.925H196.588C195.324 231.925 194.3 232.949 194.3 234.213V237.263C194.3 238.526 195.324 239.55 196.588 239.55H277.413C278.676 239.55 279.7 238.526 279.7 237.263V234.213C279.7 232.949 278.676 231.925 277.413 231.925Z" fill="#DE7FEB"/>
<path d="M212.6 195.325H204.975C203.291 195.325 201.925 196.69 201.925 198.375V230.4C201.925 232.084 203.291 233.45 204.975 233.45H212.6C214.285 233.45 215.65 232.084 215.65 230.4V198.375C215.65 196.69 214.285 195.325 212.6 195.325Z" fill="#B54ACA"/>
<path opacity="0.2" d="M205.738 195.325H204.975C204.133 195.325 203.45 196.008 203.45 196.85V231.925C203.45 232.767 204.133 233.45 204.975 233.45H205.738C206.58 233.45 207.263 232.767 207.263 231.925V196.85C207.263 196.008 206.58 195.325 205.738 195.325Z" fill="white"/>
<path d="M229.375 195.325H221.75C220.065 195.325 218.7 196.69 218.7 198.375V230.4C218.7 232.084 220.065 233.45 221.75 233.45H229.375C231.059 233.45 232.425 232.084 232.425 230.4V198.375C232.425 196.69 231.059 195.325 229.375 195.325Z" fill="#B54ACA"/>
<path opacity="0.2" d="M222.512 195.325H221.75C220.908 195.325 220.225 196.008 220.225 196.85V231.925C220.225 232.767 220.908 233.45 221.75 233.45H222.512C223.355 233.45 224.037 232.767 224.037 231.925V196.85C224.037 196.008 223.355 195.325 222.512 195.325Z" fill="white"/>
<path d="M246.15 195.325H238.525C236.841 195.325 235.475 196.69 235.475 198.375V230.4C235.475 232.084 236.841 233.45 238.525 233.45H246.15C247.834 233.45 249.2 232.084 249.2 230.4V198.375C249.2 196.69 247.834 195.325 246.15 195.325Z" fill="#B54ACA"/>
<path opacity="0.2" d="M239.287 195.325H238.525C237.683 195.325 237 196.008 237 196.85V231.925C237 232.767 237.683 233.45 238.525 233.45H239.287C240.13 233.45 240.812 232.767 240.812 231.925V196.85C240.812 196.008 240.13 195.325 239.287 195.325Z" fill="white"/>
<path d="M264.45 195.325H256.825C255.141 195.325 253.775 196.69 253.775 198.375V230.4C253.775 232.084 255.141 233.45 256.825 233.45H264.45C266.134 233.45 267.5 232.084 267.5 230.4V198.375C267.5 196.69 266.134 195.325 264.45 195.325Z" fill="#B54ACA"/>
<path opacity="0.2" d="M257.588 195.325H256.825C255.983 195.325 255.3 196.008 255.3 196.85V231.925C255.3 232.767 255.983 233.45 256.825 233.45H257.588C258.43 233.45 259.113 232.767 259.113 231.925V196.85C259.113 196.008 258.43 195.325 257.588 195.325Z" fill="white"/>
<path d="M278.175 186.175H195.825C194.141 186.175 192.775 187.541 192.775 189.225V193.8C192.775 195.485 194.141 196.85 195.825 196.85H278.175C279.859 196.85 281.225 195.485 281.225 193.8V189.225C281.225 187.541 279.859 186.175 278.175 186.175Z" fill="#AB2ACF"/>
<path d="M189.725 189.225L237 160.25L284.275 189.225H189.725Z" fill="url(#paint0_linear_81_154)"/>
<path opacity="0.38" d="M192.775 187.7L237 163.3L281.225 187.7" stroke="white" stroke-width="0.675"/>
<path opacity="0.2" d="M222.565 178.772C232.406 173.973 239.336 167.934 238.044 165.284C236.751 162.635 227.726 164.378 217.885 169.178C208.044 173.977 201.114 180.016 202.406 182.666C203.699 185.315 212.724 183.572 222.565 178.772Z" fill="white"/>
</g>
<defs>
<filter id="filter0_f_81_154" x="-173" y="-190" width="782" height="844" filterUnits="userSpaceOnUse" color-interpolation-filters="sRGB">
<feFlood flood-opacity="0" result="BackgroundImageFix"/>
<feBlend mode="normal" in="SourceGraphic" in2="BackgroundImageFix" result="shape"/>
<feGaussianBlur stdDeviation="60" result="effect1_foregroundBlur_81_154"/>
</filter>
<linearGradient id="paint0_linear_81_154" x1="237" y1="160.25" x2="237" y2="189.225" gradientUnits="userSpaceOnUse">
<stop stop-color="#CE2DE6"/>
<stop offset="1" stop-color="#731980"/>
</linearGradient>
<clipPath id="clip0_81_154">
<rect width="464" height="464" fill="white"/>
</clipPath>
</defs>
</svg>
