<svg width="464" height="464" viewBox="0 0 464 464" fill="none" xmlns="http://www.w3.org/2000/svg">
<g clip-path="url(#clip0_81_152)">
<rect width="464" height="464" fill="white"/>
<mask id="mask0_81_152" style="mask-type:alpha" maskUnits="userSpaceOnUse" x="0" y="0" width="464" height="464">
<rect width="464" height="464" fill="white"/>
</mask>
<g mask="url(#mask0_81_152)">
<g filter="url(#filter0_f_81_152)">
<mask id="mask1_81_152" style="mask-type:alpha" maskUnits="userSpaceOnUse" x="-53" y="-70" width="542" height="604">
<rect x="-53" y="-70" width="542" height="604" fill="#D9D9D9"/>
</mask>
<g mask="url(#mask1_81_152)">
<ellipse cx="272.317" cy="265.194" rx="272.752" ry="268.806" fill="#EFF0A3"/>
<ellipse cx="45.7048" cy="110.289" rx="264.575" ry="279.22" fill="#FFD606"/>
<ellipse cx="368.101" cy="-4.26282" rx="176.968" ry="184.194" fill="#FFFAA0"/>
<ellipse cx="448.7" cy="556.78" rx="257.567" ry="290.935" fill="#FFD260"/>
<ellipse cx="31.5668" cy="411.935" rx="257.567" ry="290.935" fill="#FFF476"/>
</g>
</g>
</g>
<rect x="83.5" y="82.5" width="299" height="299" rx="19.5" fill="#FFFEFE" fill-opacity="0.2" stroke="white"/>
<path d="M211.808 307.117C211.46 307.117 211.126 307.063 210.805 306.955C210.487 306.844 210.208 306.686 209.968 306.482C209.728 306.275 209.555 306.028 209.45 305.74L210.481 305.362C210.523 305.482 210.608 305.591 210.737 305.69C210.866 305.789 211.024 305.869 211.21 305.929C211.396 305.989 211.595 306.019 211.808 306.019C212.027 306.019 212.231 305.986 212.42 305.92C212.612 305.851 212.767 305.756 212.884 305.636C213.001 305.513 213.059 305.371 213.059 305.209C213.059 305.044 212.998 304.909 212.875 304.804C212.752 304.696 212.594 304.61 212.402 304.547C212.21 304.484 212.012 304.436 211.808 304.403C211.361 304.334 210.961 304.228 210.607 304.084C210.253 303.94 209.972 303.74 209.765 303.485C209.561 303.23 209.459 302.9 209.459 302.495C209.459 302.114 209.569 301.781 209.788 301.496C210.007 301.211 210.295 300.989 210.652 300.83C211.009 300.671 211.394 300.592 211.808 300.592C212.153 300.592 212.486 300.646 212.807 300.754C213.128 300.862 213.409 301.019 213.648 301.226C213.892 301.433 214.066 301.682 214.171 301.973L213.136 302.347C213.094 302.227 213.008 302.118 212.879 302.019C212.75 301.919 212.593 301.841 212.407 301.784C212.221 301.724 212.021 301.694 211.808 301.694C211.595 301.691 211.393 301.726 211.201 301.798C211.012 301.867 210.857 301.961 210.737 302.081C210.617 302.201 210.557 302.339 210.557 302.495C210.557 302.696 210.613 302.848 210.724 302.95C210.838 303.052 210.989 303.127 211.178 303.175C211.367 303.22 211.577 303.262 211.808 303.301C212.228 303.367 212.617 303.478 212.974 303.634C213.331 303.79 213.617 303.998 213.833 304.259C214.049 304.517 214.157 304.834 214.157 305.209C214.157 305.59 214.049 305.924 213.833 306.212C213.617 306.497 213.331 306.719 212.974 306.878C212.617 307.038 212.228 307.117 211.808 307.117ZM218.074 300.7H219.338L221.629 307H220.463L220.058 305.884H217.358L216.953 307H215.788L218.074 300.7ZM217.759 304.786H219.653L218.704 302.189L217.759 304.786ZM225.069 307L222.783 300.7H223.948L225.771 305.717L227.598 300.7H228.759L226.473 307H225.069ZM230.963 307V300.7H232.061V307H230.963ZM234.54 307V300.7H235.728L238.387 305.015V300.7H239.485V307H238.302L235.638 302.684V307H234.54ZM244.745 307.117C244.307 307.117 243.899 307.031 243.521 306.86C243.146 306.689 242.819 306.454 242.54 306.154C242.261 305.851 242.042 305.503 241.883 305.11C241.727 304.714 241.649 304.291 241.649 303.841C241.649 303.367 241.733 302.932 241.901 302.536C242.072 302.14 242.305 301.796 242.599 301.505C242.893 301.214 243.226 300.989 243.598 300.83C243.973 300.671 244.363 300.592 244.768 300.592C245.221 300.592 245.66 300.698 246.086 300.911C246.515 301.121 246.893 301.447 247.22 301.888L246.239 302.414C246.038 302.168 245.807 301.985 245.546 301.865C245.288 301.742 245.024 301.681 244.754 301.681C244.49 301.681 244.237 301.735 243.994 301.843C243.754 301.951 243.539 302.104 243.35 302.302C243.164 302.497 243.017 302.728 242.909 302.995C242.801 303.259 242.747 303.548 242.747 303.863C242.747 304.16 242.8 304.441 242.905 304.705C243.01 304.966 243.154 305.195 243.337 305.393C243.523 305.588 243.737 305.741 243.98 305.852C244.223 305.963 244.484 306.019 244.763 306.019C244.949 306.019 245.131 305.99 245.308 305.933C245.488 305.873 245.656 305.788 245.812 305.677C245.971 305.566 246.112 305.431 246.235 305.272C246.361 305.113 246.466 304.933 246.55 304.732H245.402V303.773H247.841C247.853 304.232 247.781 304.663 247.625 305.065C247.469 305.467 247.249 305.822 246.964 306.131C246.679 306.44 246.347 306.682 245.969 306.856C245.591 307.03 245.183 307.117 244.745 307.117ZM252.301 307.117C251.953 307.117 251.618 307.063 251.297 306.955C250.979 306.844 250.7 306.686 250.46 306.482C250.22 306.275 250.048 306.028 249.943 305.74L250.973 305.362C251.015 305.482 251.101 305.591 251.23 305.69C251.359 305.789 251.516 305.869 251.702 305.929C251.888 305.989 252.088 306.019 252.301 306.019C252.52 306.019 252.724 305.986 252.913 305.92C253.105 305.851 253.259 305.756 253.376 305.636C253.493 305.513 253.552 305.371 253.552 305.209C253.552 305.044 253.49 304.909 253.367 304.804C253.244 304.696 253.087 304.61 252.895 304.547C252.703 304.484 252.505 304.436 252.301 304.403C251.854 304.334 251.453 304.228 251.099 304.084C250.745 303.94 250.465 303.74 250.258 303.485C250.054 303.23 249.952 302.9 249.952 302.495C249.952 302.114 250.061 301.781 250.28 301.496C250.499 301.211 250.787 300.989 251.144 300.83C251.501 300.671 251.887 300.592 252.301 300.592C252.646 300.592 252.979 300.646 253.3 300.754C253.621 300.862 253.901 301.019 254.141 301.226C254.384 301.433 254.558 301.682 254.663 301.973L253.628 302.347C253.586 302.227 253.501 302.118 253.372 302.019C253.243 301.919 253.085 301.841 252.899 301.784C252.713 301.724 252.514 301.694 252.301 301.694C252.088 301.691 251.885 301.726 251.693 301.798C251.504 301.867 251.35 301.961 251.23 302.081C251.11 302.201 251.05 302.339 251.05 302.495C251.05 302.696 251.105 302.848 251.216 302.95C251.33 303.052 251.482 303.127 251.671 303.175C251.86 303.22 252.07 303.262 252.301 303.301C252.721 303.367 253.109 303.478 253.466 303.634C253.823 303.79 254.11 303.998 254.326 304.259C254.542 304.517 254.65 304.834 254.65 305.209C254.65 305.59 254.542 305.924 254.326 306.212C254.11 306.497 253.823 306.719 253.466 306.878C253.109 307.038 252.721 307.117 252.301 307.117Z" fill="#5A7A8A"/>
<path opacity="0.18" d="M233 252.5C251.225 252.5 266 250.485 266 248C266 245.515 251.225 243.5 233 243.5C214.775 243.5 200 245.515 200 248C200 250.485 214.775 252.5 233 252.5Z" fill="#0A1520"/>
<path d="M231.5 243.5C253.039 243.5 270.5 228.725 270.5 210.5C270.5 192.275 253.039 177.5 231.5 177.5C209.961 177.5 192.5 192.275 192.5 210.5C192.5 228.725 209.961 243.5 231.5 243.5Z" fill="url(#paint0_linear_81_152)"/>
<path d="M204.5 201.5C211.127 201.5 216.5 194.113 216.5 185C216.5 175.887 211.127 168.5 204.5 168.5C197.873 168.5 192.5 175.887 192.5 185C192.5 194.113 197.873 201.5 204.5 201.5Z" fill="#FFC545"/>
<path opacity="0.45" d="M204.5 194.75C208.228 194.75 211.25 190.385 211.25 185C211.25 179.615 208.228 175.25 204.5 175.25C200.772 175.25 197.75 179.615 197.75 185C197.75 190.385 200.772 194.75 204.5 194.75Z" fill="#0D2B1A"/>
<path opacity="0.7" d="M236.75 180.5H223.25C222.007 180.5 221 181.507 221 182.75C221 183.993 222.007 185 223.25 185H236.75C237.993 185 239 183.993 239 182.75C239 181.507 237.993 180.5 236.75 180.5Z" fill="#0D2B1A"/>
<path d="M266 227.75C273.456 227.75 279.5 222.713 279.5 216.5C279.5 210.287 273.456 205.25 266 205.25C258.544 205.25 252.5 210.287 252.5 216.5C252.5 222.713 258.544 227.75 266 227.75Z" fill="#FFDD55"/>
<path opacity="0.5" d="M261.5 219.8C263.322 219.8 264.8 218.322 264.8 216.5C264.8 214.677 263.322 213.2 261.5 213.2C259.677 213.2 258.2 214.677 258.2 216.5C258.2 218.322 259.677 219.8 261.5 219.8Z" fill="#0D2B1A"/>
<path opacity="0.5" d="M269 219.8C270.822 219.8 272.3 218.322 272.3 216.5C272.3 214.677 270.822 213.2 269 213.2C267.177 213.2 265.7 214.677 265.7 216.5C265.7 218.322 267.177 219.8 269 219.8Z" fill="#0D2B1A"/>
<path d="M249.5 204.2C252.648 204.2 255.2 201.648 255.2 198.5C255.2 195.352 252.648 192.8 249.5 192.8C246.352 192.8 243.8 195.352 243.8 198.5C243.8 201.648 246.352 204.2 249.5 204.2Z" fill="white"/>
<path d="M251 201.5C252.657 201.5 254 200.157 254 198.5C254 196.843 252.657 195.5 251 195.5C249.343 195.5 248 196.843 248 198.5C248 200.157 249.343 201.5 251 201.5Z" fill="#1B3A5C"/>
<path d="M252.2 198.35C252.78 198.35 253.25 197.88 253.25 197.3C253.25 196.72 252.78 196.25 252.2 196.25C251.62 196.25 251.15 196.72 251.15 197.3C251.15 197.88 251.62 198.35 252.2 198.35Z" fill="white"/>
<path d="M219.5 241.25C219.5 237.522 216.478 234.5 212.75 234.5C209.022 234.5 206 237.522 206 241.25V242.75C206 246.478 209.022 249.5 212.75 249.5C216.478 249.5 219.5 246.478 219.5 242.75V241.25Z" fill="#FFDD55"/>
<path d="M239 242.75C239 239.022 235.978 236 232.25 236C228.522 236 225.5 239.022 225.5 242.75V244.25C225.5 247.978 228.522 251 232.25 251C235.978 251 239 247.978 239 244.25V242.75Z" fill="#FFDD55"/>
<path d="M258.5 241.25C258.5 237.522 255.478 234.5 251.75 234.5C248.022 234.5 245 237.522 245 241.25V242.75C245 246.478 248.022 249.5 251.75 249.5C255.478 249.5 258.5 246.478 258.5 242.75V241.25Z" fill="#5A9A70"/>
<path opacity="0.12" d="M230 194.75C236.627 194.75 242 193.071 242 191C242 188.929 236.627 187.25 230 187.25C223.373 187.25 218 188.929 218 191C218 193.071 223.373 194.75 230 194.75Z" fill="#0A1520"/>
<path d="M230 182C236.627 182 242 176.627 242 170C242 163.373 236.627 158 230 158C223.373 158 218 163.373 218 170C218 176.627 223.373 182 230 182Z" fill="url(#paint1_linear_81_152)"/>
<path d="M228.476 173.773V163.545H229.131V173.773H228.476ZM230.214 166.921C230.182 166.599 230.045 166.349 229.802 166.17C229.56 165.992 229.231 165.903 228.815 165.903C228.533 165.903 228.295 165.942 228.1 166.022C227.906 166.1 227.757 166.207 227.653 166.346C227.552 166.484 227.501 166.642 227.501 166.817C227.496 166.964 227.526 167.092 227.593 167.201C227.662 167.31 227.757 167.405 227.877 167.485C227.996 167.562 228.135 167.63 228.292 167.688C228.449 167.744 228.617 167.792 228.795 167.832L229.53 168.008C229.887 168.088 230.215 168.194 230.513 168.328C230.812 168.461 231.07 168.624 231.288 168.819C231.507 169.013 231.676 169.242 231.796 169.506C231.918 169.77 231.981 170.072 231.983 170.413C231.981 170.914 231.853 171.348 231.6 171.715C231.35 172.08 230.987 172.364 230.513 172.566C230.042 172.766 229.473 172.866 228.807 172.866C228.147 172.866 227.572 172.765 227.082 172.562C226.594 172.36 226.213 172.06 225.939 171.663C225.667 171.264 225.525 170.77 225.511 170.181H227.185C227.204 170.456 227.283 170.685 227.421 170.868C227.562 171.049 227.75 171.187 227.984 171.28C228.221 171.37 228.489 171.416 228.787 171.416C229.08 171.416 229.335 171.373 229.55 171.288C229.769 171.203 229.938 171.084 230.058 170.932C230.178 170.78 230.238 170.606 230.238 170.409C230.238 170.225 230.183 170.071 230.074 169.945C229.967 169.82 229.81 169.714 229.602 169.626C229.397 169.538 229.146 169.458 228.847 169.386L227.956 169.162C227.267 168.995 226.722 168.732 226.322 168.375C225.923 168.019 225.725 167.538 225.727 166.933C225.725 166.438 225.856 166.005 226.123 165.635C226.392 165.265 226.761 164.976 227.229 164.768C227.698 164.56 228.231 164.456 228.827 164.456C229.435 164.456 229.965 164.56 230.417 164.768C230.873 164.976 231.227 165.265 231.48 165.635C231.733 166.005 231.864 166.434 231.872 166.921H230.214Z" fill="#8B6210"/>
<path opacity="0.22" d="M216.603 210.261C225.053 206.847 230.267 200.033 228.249 195.04C226.232 190.047 217.748 188.767 209.299 192.181C200.849 195.595 195.635 202.409 197.652 207.402C199.67 212.395 208.154 213.675 216.603 210.261Z" fill="white"/>
</g>
<defs>
<filter id="filter0_f_81_152" x="-173" y="-190" width="782" height="844" filterUnits="userSpaceOnUse" color-interpolation-filters="sRGB">
<feFlood flood-opacity="0" result="BackgroundImageFix"/>
<feBlend mode="normal" in="SourceGraphic" in2="BackgroundImageFix" result="shape"/>
<feGaussianBlur stdDeviation="60" result="effect1_foregroundBlur_81_152"/>
</filter>
<linearGradient id="paint0_linear_81_152" x1="231.5" y1="177.5" x2="231.5" y2="243.5" gradientUnits="userSpaceOnUse">
<stop offset="0.514423" stop-color="#FFCC12"/>
<stop offset="1" stop-color="#997A0B"/>
</linearGradient>
<linearGradient id="paint1_linear_81_152" x1="218" y1="158" x2="227.6" y2="182" gradientUnits="userSpaceOnUse">
<stop stop-color="#F5D090"/>
<stop offset="1" stop-color="#C88C20"/>
</linearGradient>
<clipPath id="clip0_81_152">
<rect width="464" height="464" fill="white"/>
</clipPath>
</defs>
</svg>
