<svg width="464" height="464" viewBox="0 0 464 464" fill="none" xmlns="http://www.w3.org/2000/svg">
<g clip-path="url(#clip0_81_151)">
<rect width="464" height="464" fill="white"/>
<mask id="mask0_81_151" style="mask-type:alpha" maskUnits="userSpaceOnUse" x="0" y="0" width="464" height="464">
<rect width="464" height="464" fill="white"/>
</mask>
<g mask="url(#mask0_81_151)">
<g filter="url(#filter0_f_81_151)">
<mask id="mask1_81_151" style="mask-type:alpha" maskUnits="userSpaceOnUse" x="-53" y="-70" width="542" height="604">
<rect x="-53" y="-70" width="542" height="604" fill="#D9D9D9"/>
</mask>
<g mask="url(#mask1_81_151)">
<path d="M545.069 265.194C545.069 413.651 422.954 534 272.317 534C121.68 534 -0.435303 413.651 -0.435303 265.194C-0.435303 116.736 121.68 -3.61206 272.317 -3.61206C422.954 -3.61206 545.069 116.736 545.069 265.194Z" fill="#0046A1"/>
<ellipse cx="45.7047" cy="110.289" rx="264.575" ry="279.22" fill="#1B3A5C"/>
<ellipse cx="368.101" cy="-4.26282" rx="176.968" ry="184.194" fill="#00315B"/>
<ellipse cx="448.7" cy="556.78" rx="257.567" ry="290.935" fill="#53A0FF"/>
<ellipse cx="31.5668" cy="411.935" rx="257.567" ry="290.935" fill="#0052A4"/>
</g>
</g>
</g>
<rect x="82.5" y="82.5" width="299" height="299" rx="19.5" fill="#FFFEFE" fill-opacity="0.2" stroke="white"/>
<path opacity="0.18" d="M227.125 262.375C242.382 262.375 254.75 260.192 254.75 257.5C254.75 254.808 242.382 252.625 227.125 252.625C211.868 252.625 199.5 254.808 199.5 257.5C199.5 260.192 211.868 262.375 227.125 262.375Z" fill="#0A1520"/>
<path d="M253.125 164.875H207.625C201.343 164.875 196.25 169.968 196.25 176.25V251C196.25 257.282 201.343 262.375 207.625 262.375H253.125C259.407 262.375 264.5 257.282 264.5 251V176.25C264.5 169.968 259.407 164.875 253.125 164.875Z" fill="url(#paint0_linear_81_151)"/>
<path opacity="0.65" d="M253.125 176.25H207.625C204.933 176.25 202.75 178.433 202.75 181.125V236.375C202.75 239.067 204.933 241.25 207.625 241.25H253.125C255.817 241.25 258 239.067 258 236.375V181.125C258 178.433 255.817 176.25 253.125 176.25Z" fill="#0A1F38"/>
<path opacity="0.3" d="M241.344 252.625H222.656C221.534 252.625 220.625 253.534 220.625 254.656C220.625 255.778 221.534 256.688 222.656 256.688H241.344C242.466 256.688 243.375 255.778 243.375 254.656C243.375 253.534 242.466 252.625 241.344 252.625Z" fill="white"/>
<path opacity="0.9" d="M255.969 205.5H204.781C203.659 205.5 202.75 206.409 202.75 207.531C202.75 208.653 203.659 209.562 204.781 209.562H255.969C257.091 209.562 258 208.653 258 207.531C258 206.409 257.091 205.5 255.969 205.5Z" fill="#8ECFB2"/>
<path opacity="0.38" d="M238.906 184.375H212.094C211.421 184.375 210.875 184.921 210.875 185.594C210.875 186.267 211.421 186.812 212.094 186.812H238.906C239.579 186.812 240.125 186.267 240.125 185.594C240.125 184.921 239.579 184.375 238.906 184.375Z" fill="white"/>
<path opacity="0.38" d="M230.781 190.875H212.094C211.421 190.875 210.875 191.421 210.875 192.094C210.875 192.767 211.421 193.312 212.094 193.312H230.781C231.454 193.312 232 192.767 232 192.094C232 191.421 231.454 190.875 230.781 190.875Z" fill="white"/>
<path opacity="0.38" d="M245.406 197.375H212.094C211.421 197.375 210.875 197.921 210.875 198.594C210.875 199.267 211.421 199.812 212.094 199.812H245.406C246.079 199.812 246.625 199.267 246.625 198.594C246.625 197.921 246.079 197.375 245.406 197.375Z" fill="white"/>
<path opacity="0.22" d="M235.656 216.875H212.094C211.421 216.875 210.875 217.421 210.875 218.094C210.875 218.767 211.421 219.312 212.094 219.312H235.656C236.329 219.312 236.875 218.767 236.875 218.094C236.875 217.421 236.329 216.875 235.656 216.875Z" fill="white"/>
<path opacity="0.22" d="M225.906 223.375H212.094C211.421 223.375 210.875 223.921 210.875 224.594C210.875 225.267 211.421 225.812 212.094 225.812H225.906C226.579 225.812 227.125 225.267 227.125 224.594C227.125 223.921 226.579 223.375 225.906 223.375Z" fill="white"/>
<path opacity="0.22" d="M242.156 229.875H212.094C211.421 229.875 210.875 230.421 210.875 231.094C210.875 231.767 211.421 232.312 212.094 232.312H242.156C242.829 232.312 243.375 231.767 243.375 231.094C243.375 230.421 242.829 229.875 242.156 229.875Z" fill="white"/>
<path opacity="0.2" d="M260.438 204.688C271.207 204.688 279.938 195.957 279.938 185.188C279.938 174.418 271.207 165.688 260.438 165.688C249.668 165.688 240.938 174.418 240.938 185.188C240.938 195.957 249.668 204.688 260.438 204.688Z" fill="#0A1520"/>
<path d="M258 202.25C268.77 202.25 277.5 193.52 277.5 182.75C277.5 171.98 268.77 163.25 258 163.25C247.23 163.25 238.5 171.98 238.5 182.75C238.5 193.52 247.23 202.25 258 202.25Z" fill="url(#paint1_linear_81_151)"/>
<path d="M254.523 186.25H252.854L255.397 178.886H257.403L259.941 186.25H258.273L256.428 180.569H256.371L254.523 186.25ZM254.419 183.356H258.359V184.571H254.419V183.356ZM262.384 178.886V186.25H260.828V178.886H262.384Z" fill="white"/>
<path opacity="0.9" d="M258 167.8C259.615 167.8 260.925 166.49 260.925 164.875C260.925 163.26 259.615 161.95 258 161.95C256.385 161.95 255.075 163.26 255.075 164.875C255.075 166.49 256.385 167.8 258 167.8Z" fill="#CFDECA"/>
<path opacity="0.9" d="M274.25 185.675C275.865 185.675 277.175 184.365 277.175 182.75C277.175 181.135 275.865 179.825 274.25 179.825C272.635 179.825 271.325 181.135 271.325 182.75C271.325 184.365 272.635 185.675 274.25 185.675Z" fill="#CFDECA"/>
<path opacity="0.15" d="M208.887 184.209C214.955 182.583 219.309 179.157 218.612 176.556C217.916 173.955 212.431 173.165 206.363 174.791C200.295 176.417 195.941 179.843 196.638 182.444C197.334 185.045 202.819 185.835 208.887 184.209Z" fill="white"/>
<path opacity="0.28" d="M251.5 177.439C254.609 175.645 256.402 172.929 255.504 171.375C254.607 169.82 251.359 170.015 248.25 171.81C245.141 173.605 243.348 176.32 244.246 177.875C245.143 179.429 248.391 179.234 251.5 177.439Z" fill="white"/>
<path d="M210.646 299.7H211.911L214.201 306H213.036L212.631 304.884H209.931L209.526 306H208.36L210.646 299.7ZM210.331 303.786H212.226L211.276 301.189L210.331 303.786ZM216.351 306V299.7H217.449V306H216.351ZM223.35 306V299.7H225.6C225.942 299.7 226.251 299.785 226.527 299.956C226.806 300.127 227.027 300.357 227.189 300.645C227.351 300.933 227.432 301.249 227.432 301.594C227.432 301.948 227.348 302.269 227.18 302.557C227.015 302.842 226.793 303.07 226.514 303.241C226.235 303.409 225.93 303.493 225.6 303.493H224.448V306H223.35ZM224.448 302.395H225.483C225.639 302.395 225.782 302.356 225.911 302.278C226.04 302.2 226.142 302.095 226.217 301.963C226.295 301.831 226.334 301.684 226.334 301.522C226.334 301.357 226.295 301.209 226.217 301.077C226.142 300.945 226.04 300.84 225.911 300.762C225.782 300.684 225.639 300.645 225.483 300.645H224.448V302.395ZM230.645 299.7H231.909L234.2 306H233.034L232.629 304.884H229.929L229.524 306H228.359L230.645 299.7ZM230.33 303.786H232.224L231.275 301.189L230.33 303.786ZM236.215 306V299.7H238.631C238.973 299.7 239.282 299.785 239.558 299.956C239.834 300.127 240.053 300.357 240.215 300.645C240.377 300.93 240.458 301.246 240.458 301.594C240.458 301.879 240.406 302.142 240.301 302.382C240.199 302.619 240.055 302.824 239.869 302.998C239.686 303.172 239.474 303.304 239.234 303.394L240.742 306H239.477L238.019 303.493H237.313V306H236.215ZM237.313 302.395H238.505C238.661 302.395 238.804 302.356 238.933 302.278C239.062 302.2 239.165 302.095 239.243 301.963C239.321 301.831 239.36 301.684 239.36 301.522C239.36 301.357 239.321 301.209 239.243 301.077C239.165 300.945 239.062 300.84 238.933 300.762C238.804 300.684 238.661 300.645 238.505 300.645H237.313V302.395ZM245.131 306.117C244.783 306.117 244.448 306.063 244.127 305.955C243.809 305.844 243.53 305.686 243.29 305.482C243.05 305.275 242.878 305.028 242.773 304.74L243.803 304.362C243.845 304.482 243.931 304.591 244.06 304.69C244.189 304.789 244.346 304.869 244.532 304.929C244.718 304.989 244.918 305.019 245.131 305.019C245.35 305.019 245.554 304.986 245.743 304.92C245.935 304.851 246.089 304.756 246.206 304.636C246.323 304.513 246.382 304.371 246.382 304.209C246.382 304.044 246.32 303.909 246.197 303.804C246.074 303.696 245.917 303.61 245.725 303.547C245.533 303.484 245.335 303.436 245.131 303.403C244.684 303.334 244.283 303.228 243.929 303.084C243.575 302.94 243.295 302.74 243.088 302.485C242.884 302.23 242.782 301.9 242.782 301.495C242.782 301.114 242.891 300.781 243.11 300.496C243.329 300.211 243.617 299.989 243.974 299.83C244.331 299.671 244.717 299.592 245.131 299.592C245.476 299.592 245.809 299.646 246.13 299.754C246.451 299.862 246.731 300.019 246.971 300.226C247.214 300.433 247.388 300.682 247.493 300.973L246.458 301.347C246.416 301.227 246.331 301.118 246.202 301.019C246.073 300.919 245.915 300.841 245.729 300.784C245.543 300.724 245.344 300.694 245.131 300.694C244.918 300.691 244.715 300.726 244.523 300.798C244.334 300.867 244.18 300.961 244.06 301.081C243.94 301.201 243.88 301.339 243.88 301.495C243.88 301.696 243.935 301.848 244.046 301.95C244.16 302.052 244.312 302.127 244.501 302.175C244.69 302.22 244.9 302.262 245.131 302.301C245.551 302.367 245.939 302.478 246.296 302.634C246.653 302.79 246.94 302.998 247.156 303.259C247.372 303.517 247.48 303.834 247.48 304.209C247.48 304.59 247.372 304.924 247.156 305.212C246.94 305.497 246.653 305.719 246.296 305.878C245.939 306.038 245.551 306.117 245.131 306.117ZM249.765 306V299.7H253.716V300.798H250.863V302.076H253.127V303.174H250.863V304.902H253.716V306H249.765Z" fill="white"/>
</g>
<defs>
<filter id="filter0_f_81_151" x="-173" y="-190" width="782" height="844" filterUnits="userSpaceOnUse" color-interpolation-filters="sRGB">
<feFlood flood-opacity="0" result="BackgroundImageFix"/>
<feBlend mode="normal" in="SourceGraphic" in2="BackgroundImageFix" result="shape"/>
<feGaussianBlur stdDeviation="60" result="effect1_foregroundBlur_81_151"/>
</filter>
<linearGradient id="paint0_linear_81_151" x1="206.487" y1="164.875" x2="279.125" y2="237.513" gradientUnits="userSpaceOnUse">
<stop stop-color="#3D8BCC"/>
<stop offset="1" stop-color="#1B3A5C"/>
</linearGradient>
<linearGradient id="paint1_linear_81_151" x1="238.5" y1="163.25" x2="258" y2="202.25" gradientUnits="userSpaceOnUse">
<stop stop-color="#8ECFB2"/>
<stop offset="1" stop-color="#2E7D52"/>
</linearGradient>
<clipPath id="clip0_81_151">
<rect width="464" height="464" fill="white"/>
</clipPath>
</defs>
</svg>
