<svg width="464" height="464" viewBox="0 0 464 464" fill="none" xmlns="http://www.w3.org/2000/svg">
<g clip-path="url(#clip0_81_150)">
<rect width="464" height="464" fill="white"/>
<mask id="mask0_81_150" style="mask-type:alpha" maskUnits="userSpaceOnUse" x="0" y="0" width="464" height="464">
<rect width="464" height="464" fill="white"/>
</mask>
<g mask="url(#mask0_81_150)">
<g filter="url(#filter0_f_81_150)">
<mask id="mask1_81_150" style="mask-type:alpha" maskUnits="userSpaceOnUse" x="-53" y="-70" width="542" height="604">
<rect x="-53" y="-70" width="542" height="604" fill="#D9D9D9"/>
</mask>
<g mask="url(#mask1_81_150)">
<ellipse cx="272.317" cy="265.194" rx="272.752" ry="268.806" fill="#DFFF88"/>
<ellipse cx="45.7048" cy="110.289" rx="264.575" ry="279.22" fill="#9DE791"/>
<ellipse cx="368.101" cy="-4.26282" rx="176.968" ry="184.194" fill="#CCF7A9"/>
<ellipse cx="448.7" cy="556.78" rx="257.567" ry="290.935" fill="#AEDF54"/>
<ellipse cx="31.5668" cy="411.935" rx="257.567" ry="290.935" fill="#AED774"/>
</g>
</g>
</g>
<rect x="82.5" y="82.5" width="299" height="299" rx="19.5" fill="#FFFEFE" fill-opacity="0.2" stroke="white"/>
<path opacity="0.2" d="M232 269.094C248.154 269.094 261.25 266.606 261.25 263.537C261.25 260.469 248.154 257.981 232 257.981C215.846 257.981 202.75 260.469 202.75 263.537C202.75 266.606 215.846 269.094 232 269.094Z" fill="#0A1520"/>
<path d="M232 169.875L271 188.925V225.438C271 244.488 258 258.775 232 268.3C206 258.775 193 244.488 193 225.438V188.925L232 169.875Z" fill="url(#paint0_linear_81_150)"/>
<path opacity="0.28" d="M232 179.4L264.5 195.275V225.437C264.5 241.312 253.667 253.483 232 261.95C210.333 253.483 199.5 241.312 199.5 225.437V195.275L232 179.4Z" stroke="white" stroke-width="0.675"/>
<path opacity="0.15" d="M241.75 192.1H222.25C215.968 192.1 210.875 197.075 210.875 203.213C210.875 209.35 215.968 214.325 222.25 214.325H241.75C248.032 214.325 253.125 209.35 253.125 203.213C253.125 197.075 248.032 192.1 241.75 192.1Z" fill="white"/>
<path d="M227.372 193.389C227.835 193.389 228.28 193.467 228.708 193.622C229.138 193.778 229.522 194.025 229.859 194.365C230.199 194.705 230.467 195.156 230.663 195.719C230.863 196.278 230.964 196.965 230.967 197.78C230.967 198.544 230.88 199.227 230.707 199.827C230.537 200.425 230.293 200.933 229.973 201.352C229.654 201.771 229.269 202.091 228.818 202.31C228.366 202.527 227.863 202.635 227.306 202.635C226.705 202.635 226.175 202.52 225.715 202.288C225.255 202.054 224.884 201.736 224.603 201.335C224.325 200.93 224.156 200.476 224.098 199.972H225.974C226.048 200.301 226.201 200.555 226.436 200.737C226.67 200.916 226.96 201.005 227.306 201.005C227.892 201.005 228.337 200.75 228.642 200.24C228.946 199.728 229.1 199.026 229.103 198.135H229.042C228.907 198.399 228.725 198.626 228.497 198.817C228.268 199.004 228.006 199.149 227.71 199.252C227.417 199.354 227.105 199.406 226.774 199.406C226.244 199.406 225.771 199.281 225.355 199.032C224.939 198.783 224.611 198.44 224.37 198.004C224.13 197.567 224.01 197.069 224.01 196.51C224.007 195.906 224.146 195.368 224.427 194.897C224.709 194.425 225.101 194.056 225.605 193.789C226.112 193.52 226.701 193.386 227.372 193.389ZM227.385 194.884C227.089 194.884 226.825 194.954 226.594 195.094C226.365 195.235 226.184 195.424 226.049 195.661C225.917 195.899 225.853 196.164 225.856 196.457C225.856 196.753 225.92 197.019 226.049 197.257C226.181 197.491 226.36 197.678 226.585 197.819C226.814 197.957 227.074 198.026 227.367 198.026C227.587 198.026 227.791 197.985 227.978 197.903C228.166 197.821 228.328 197.708 228.466 197.564C228.607 197.418 228.717 197.249 228.796 197.059C228.875 196.868 228.914 196.666 228.914 196.452C228.911 196.168 228.844 195.907 228.712 195.67C228.58 195.433 228.399 195.242 228.167 195.099C227.936 194.955 227.675 194.884 227.385 194.884ZM232.285 202.512V201.141L235.488 198.175C235.761 197.911 235.989 197.674 236.174 197.463C236.362 197.252 236.504 197.046 236.6 196.844C236.697 196.638 236.745 196.417 236.745 196.18C236.745 195.916 236.685 195.689 236.565 195.499C236.445 195.305 236.281 195.157 236.073 195.055C235.865 194.949 235.629 194.897 235.365 194.897C235.09 194.897 234.85 194.952 234.645 195.064C234.44 195.175 234.281 195.335 234.17 195.543C234.059 195.751 234.003 195.998 234.003 196.285H232.197C232.197 195.697 232.33 195.185 232.597 194.752C232.863 194.318 233.237 193.983 233.717 193.745C234.198 193.508 234.752 193.389 235.379 193.389C236.023 193.389 236.584 193.504 237.062 193.732C237.542 193.958 237.916 194.271 238.182 194.673C238.449 195.074 238.582 195.534 238.582 196.052C238.582 196.392 238.515 196.728 238.38 197.059C238.248 197.39 238.012 197.758 237.673 198.162C237.333 198.563 236.854 199.045 236.236 199.608L234.922 200.895V200.957H238.701V202.512H232.285Z" fill="white"/>
<path opacity="0.88" d="M202.75 233.375H210.875L217.375 219.087L223.875 247.662L228.75 225.437H235.25L241.75 238.137L248.25 233.375H261.25" stroke="white" stroke-width="2.475" stroke-linecap="round" stroke-linejoin="round"/>
<path opacity="0.22" d="M211.473 193.305C219.906 190.306 225.748 185.203 224.52 181.908C223.292 178.612 215.46 178.372 207.027 181.37C198.593 184.369 192.752 189.472 193.98 192.767C195.208 196.063 203.04 196.303 211.473 193.305Z" fill="white"/>
<path d="M217.248 309.7H218.346V316H217.248V313.174H214.638V316H213.54V309.7H214.638V312.076H217.248V309.7ZM220.689 316V309.7H224.64V310.798H221.787V312.076H224.05V313.174H221.787V314.902H224.64V316H220.689ZM228.854 309.7H230.118L232.409 316H231.243L230.838 314.884H228.138L227.733 316H226.568L228.854 309.7ZM228.539 313.786H230.433L229.484 311.189L228.539 313.786ZM234.424 316V309.7H235.522V314.902H238.145V316H234.424ZM244.488 309.7V310.798H242.562V316H241.464V310.798H239.538V309.7H244.488ZM250.355 309.7H251.453V316H250.355V313.174H247.745V316H246.647V309.7H247.745V312.076H250.355V309.7Z" fill="#5A7A8A"/>
</g>
<defs>
<filter id="filter0_f_81_150" x="-173" y="-190" width="782" height="844" filterUnits="userSpaceOnUse" color-interpolation-filters="sRGB">
<feFlood flood-opacity="0" result="BackgroundImageFix"/>
<feBlend mode="normal" in="SourceGraphic" in2="BackgroundImageFix" result="shape"/>
<feGaussianBlur stdDeviation="60" result="effect1_foregroundBlur_81_150"/>
</filter>
<linearGradient id="paint0_linear_81_150" x1="204.7" y1="169.875" x2="269.119" y2="254.96" gradientUnits="userSpaceOnUse">
<stop stop-color="#4CAF7A"/>
<stop offset="1" stop-color="#1B4A30"/>
</linearGradient>
<clipPath id="clip0_81_150">
<rect width="464" height="464" fill="white"/>
</clipPath>
</defs>
</svg>
