<svg width="464" height="464" viewBox="0 0 464 464" fill="none" xmlns="http://www.w3.org/2000/svg">
<g clip-path="url(#clip0_81_149)">
<rect width="464" height="464" fill="white"/>
<mask id="mask0_81_149" style="mask-type:alpha" maskUnits="userSpaceOnUse" x="0" y="0" width="464" height="464">
<rect width="464" height="464" fill="white"/>
</mask>
<g mask="url(#mask0_81_149)">
<g filter="url(#filter0_f_81_149)">
<mask id="mask1_81_149" style="mask-type:alpha" maskUnits="userSpaceOnUse" x="-53" y="-70" width="542" height="604">
<rect x="-53" y="-70" width="542" height="604" fill="#D9D9D9"/>
</mask>
<g mask="url(#mask1_81_149)">
<ellipse cx="272.317" cy="265.194" rx="272.752" ry="268.806" fill="#F0C882"/>
<ellipse cx="45.7047" cy="110.289" rx="264.575" ry="279.22" fill="#FFB68B"/>
<ellipse cx="368.101" cy="-4.26282" rx="176.968" ry="184.194" fill="#F4A89A"/>
<ellipse cx="448.7" cy="556.78" rx="257.567" ry="290.935" fill="#FF7474"/>
<ellipse cx="31.5668" cy="411.935" rx="257.567" ry="290.935" fill="#FF9F6E"/>
</g>
</g>
</g>
<rect x="82.5" y="82.5" width="299" height="299" rx="19.5" fill="#FFFEFE" fill-opacity="0.2" stroke="white"/>
<path d="M208.54 306V299.7H210.835C211.168 299.7 211.468 299.769 211.735 299.907C212.005 300.042 212.218 300.237 212.374 300.492C212.533 300.744 212.613 301.042 212.613 301.387C212.613 301.54 212.59 301.695 212.545 301.851C212.5 302.007 212.431 302.148 212.338 302.274C212.245 302.397 212.125 302.488 211.978 302.548C212.173 302.596 212.332 302.683 212.455 302.809C212.578 302.935 212.674 303.084 212.743 303.255C212.812 303.423 212.859 303.595 212.883 303.772C212.91 303.946 212.923 304.108 212.923 304.258C212.923 304.591 212.841 304.888 212.676 305.149C212.511 305.41 212.289 305.617 212.01 305.77C211.734 305.923 211.428 306 211.092 306H208.54ZM209.638 305.059H210.979C211.159 305.059 211.321 305.016 211.465 304.929C211.609 304.842 211.725 304.722 211.812 304.569C211.899 304.416 211.942 304.242 211.942 304.047C211.942 303.879 211.899 303.72 211.812 303.57C211.725 303.42 211.609 303.298 211.465 303.205C211.321 303.112 211.159 303.066 210.979 303.066H209.638V305.059ZM209.638 302.139H210.709C210.931 302.139 211.12 302.07 211.276 301.932C211.435 301.794 211.515 301.611 211.515 301.383C211.515 301.14 211.435 300.957 211.276 300.834C211.12 300.708 210.931 300.645 210.709 300.645H209.638V302.139ZM217.572 306.117C217.068 306.117 216.625 305.994 216.244 305.748C215.866 305.502 215.572 305.172 215.362 304.758C215.152 304.341 215.047 303.879 215.047 303.372V299.7H216.145V303.372C216.145 303.672 216.201 303.948 216.312 304.2C216.426 304.449 216.588 304.648 216.798 304.798C217.011 304.945 217.269 305.019 217.572 305.019C217.878 305.019 218.136 304.945 218.346 304.798C218.556 304.648 218.715 304.449 218.823 304.2C218.934 303.948 218.989 303.672 218.989 303.372V299.7H220.087V303.372C220.087 303.753 220.027 304.11 219.907 304.443C219.787 304.773 219.616 305.064 219.394 305.316C219.172 305.568 218.907 305.764 218.598 305.905C218.292 306.046 217.95 306.117 217.572 306.117ZM222.319 306V299.7H224.407C224.842 299.7 225.248 299.782 225.626 299.947C226.007 300.109 226.342 300.336 226.63 300.627C226.921 300.915 227.147 301.249 227.309 301.63C227.474 302.008 227.557 302.415 227.557 302.85C227.557 303.285 227.474 303.693 227.309 304.074C227.147 304.452 226.921 304.786 226.63 305.077C226.342 305.365 226.007 305.592 225.626 305.757C225.248 305.919 224.842 306 224.407 306H222.319ZM223.417 304.902H224.407C224.686 304.902 224.948 304.849 225.194 304.744C225.443 304.636 225.662 304.489 225.851 304.303C226.04 304.114 226.189 303.897 226.297 303.651C226.405 303.402 226.459 303.135 226.459 302.85C226.459 302.565 226.405 302.299 226.297 302.053C226.189 301.807 226.04 301.59 225.851 301.401C225.662 301.212 225.445 301.065 225.199 300.96C224.953 300.852 224.689 300.798 224.407 300.798H223.417V304.902ZM232.471 306.117C232.033 306.117 231.625 306.031 231.247 305.86C230.872 305.689 230.545 305.454 230.266 305.154C229.987 304.851 229.768 304.503 229.609 304.11C229.453 303.714 229.375 303.291 229.375 302.841C229.375 302.367 229.459 301.932 229.627 301.536C229.798 301.14 230.031 300.796 230.325 300.505C230.619 300.214 230.952 299.989 231.324 299.83C231.699 299.671 232.089 299.592 232.494 299.592C232.947 299.592 233.386 299.698 233.812 299.911C234.241 300.121 234.619 300.447 234.946 300.888L233.965 301.414C233.764 301.168 233.533 300.985 233.272 300.865C233.014 300.742 232.75 300.681 232.48 300.681C232.216 300.681 231.963 300.735 231.72 300.843C231.48 300.951 231.265 301.104 231.076 301.302C230.89 301.497 230.743 301.728 230.635 301.995C230.527 302.259 230.473 302.548 230.473 302.863C230.473 303.16 230.526 303.441 230.631 303.705C230.736 303.966 230.88 304.195 231.063 304.393C231.249 304.588 231.463 304.741 231.706 304.852C231.949 304.963 232.21 305.019 232.489 305.019C232.675 305.019 232.857 304.99 233.034 304.933C233.214 304.873 233.382 304.788 233.538 304.677C233.697 304.566 233.838 304.431 233.961 304.272C234.087 304.113 234.192 303.933 234.276 303.732H233.128V302.773H235.567C235.579 303.232 235.507 303.663 235.351 304.065C235.195 304.467 234.975 304.822 234.69 305.131C234.405 305.44 234.073 305.682 233.695 305.856C233.317 306.03 232.909 306.117 232.471 306.117ZM237.653 306V299.7H241.604V300.798H238.751V302.076H241.015V303.174H238.751V304.902H241.604V306H237.653ZM248.623 299.7V300.798H246.697V306H245.599V300.798H243.673V299.7H248.623Z" fill="white"/>
<path opacity="0.18" d="M225.4 249.919C243.625 249.919 258.4 247.431 258.4 244.362C258.4 241.294 243.625 238.806 225.4 238.806C207.175 238.806 192.4 241.294 192.4 244.362C192.4 247.431 207.175 249.919 225.4 249.919Z" fill="#0A1520"/>
<path d="M251.8 169.75H192.4C186.932 169.75 182.5 174.014 182.5 179.275V230.075C182.5 235.336 186.932 239.6 192.4 239.6H251.8C257.268 239.6 261.7 235.336 261.7 230.075V179.275C261.7 174.014 257.268 169.75 251.8 169.75Z" fill="url(#paint0_linear_81_149)"/>
<path d="M251.8 169.75H192.4C186.932 169.75 182.5 174.014 182.5 179.275V182.45C182.5 187.711 186.932 191.975 192.4 191.975H251.8C257.268 191.975 261.7 187.711 261.7 182.45V179.275C261.7 174.014 257.268 169.75 251.8 169.75Z" fill="#FF8801"/>
<path d="M261.7 182.45H182.5V191.975H261.7V182.45Z" fill="#FF8400"/>
<path d="M212.2 162.606C212.2 160.414 210.353 158.637 208.075 158.637C205.797 158.637 203.95 160.414 203.95 162.606V173.719C203.95 175.911 205.797 177.687 208.075 177.687C210.353 177.687 212.2 175.911 212.2 173.719V162.606Z" fill="#FF5829"/>
<path d="M240.25 162.606C240.25 160.414 238.403 158.637 236.125 158.637C233.847 158.637 232 160.414 232 162.606V173.719C232 175.911 233.847 177.687 236.125 177.687C238.403 177.687 240.25 175.911 240.25 173.719V162.606Z" fill="#FF5829"/>
<path opacity="0.15" d="M203.125 199.913H196.525C195.158 199.913 194.05 200.979 194.05 202.294V207.056C194.05 208.371 195.158 209.438 196.525 209.438H203.125C204.492 209.438 205.6 208.371 205.6 207.056V202.294C205.6 200.979 204.492 199.913 203.125 199.913Z" fill="white"/>
<path opacity="0.15" d="M219.625 199.913H213.025C211.658 199.913 210.55 200.979 210.55 202.294V207.056C210.55 208.371 211.658 209.438 213.025 209.438H219.625C220.992 209.438 222.1 208.371 222.1 207.056V202.294C222.1 200.979 220.992 199.913 219.625 199.913Z" fill="white"/>
<path opacity="0.15" d="M236.125 199.913H229.525C228.158 199.913 227.05 200.979 227.05 202.294V207.056C227.05 208.371 228.158 209.438 229.525 209.438H236.125C237.492 209.438 238.6 208.371 238.6 207.056V202.294C238.6 200.979 237.492 199.913 236.125 199.913Z" fill="white"/>
<path opacity="0.15" d="M252.625 199.913H246.025C244.658 199.913 243.55 200.979 243.55 202.294V207.056C243.55 208.371 244.658 209.438 246.025 209.438H252.625C253.992 209.438 255.1 208.371 255.1 207.056V202.294C255.1 200.979 253.992 199.913 252.625 199.913Z" fill="white"/>
<path opacity="0.45" d="M203.125 214.2H196.525C195.158 214.2 194.05 215.266 194.05 216.581V221.344C194.05 222.659 195.158 223.725 196.525 223.725H203.125C204.492 223.725 205.6 222.659 205.6 221.344V216.581C205.6 215.266 204.492 214.2 203.125 214.2Z" fill="white"/>
<path opacity="0.15" d="M219.625 214.2H213.025C211.658 214.2 210.55 215.266 210.55 216.581V221.344C210.55 222.659 211.658 223.725 213.025 223.725H219.625C220.992 223.725 222.1 222.659 222.1 221.344V216.581C222.1 215.266 220.992 214.2 219.625 214.2Z" fill="white"/>
<path opacity="0.15" d="M236.125 214.2H229.525C228.158 214.2 227.05 215.266 227.05 216.581V221.344C227.05 222.659 228.158 223.725 229.525 223.725H236.125C237.492 223.725 238.6 222.659 238.6 221.344V216.581C238.6 215.266 237.492 214.2 236.125 214.2Z" fill="white"/>
<path opacity="0.15" d="M252.625 214.2H246.025C244.658 214.2 243.55 215.266 243.55 216.581V221.344C243.55 222.659 244.658 223.725 246.025 223.725H252.625C253.992 223.725 255.1 222.659 255.1 221.344V216.581C255.1 215.266 253.992 214.2 252.625 214.2Z" fill="white"/>
<path opacity="0.15" d="M203.125 228.488H196.525C195.158 228.488 194.05 229.554 194.05 230.869V235.631C194.05 236.946 195.158 238.013 196.525 238.013H203.125C204.492 238.013 205.6 236.946 205.6 235.631V230.869C205.6 229.554 204.492 228.488 203.125 228.488Z" fill="white"/>
<path opacity="0.15" d="M219.625 228.488H213.025C211.658 228.488 210.55 229.554 210.55 230.869V235.631C210.55 236.946 211.658 238.013 213.025 238.013H219.625C220.992 238.013 222.1 236.946 222.1 235.631V230.869C222.1 229.554 220.992 228.488 219.625 228.488Z" fill="white"/>
<path opacity="0.15" d="M236.125 228.488H229.525C228.158 228.488 227.05 229.554 227.05 230.869V235.631C227.05 236.946 228.158 238.013 229.525 238.013H236.125C237.492 238.013 238.6 236.946 238.6 235.631V230.869C238.6 229.554 237.492 228.488 236.125 228.488Z" fill="white"/>
<path opacity="0.15" d="M252.625 228.488H246.025C244.658 228.488 243.55 229.554 243.55 230.869V235.631C243.55 236.946 244.658 238.013 246.025 238.013H252.625C253.992 238.013 255.1 236.946 255.1 235.631V230.869C255.1 229.554 253.992 228.488 252.625 228.488Z" fill="white"/>
<path opacity="0.18" d="M265 255.475C278.669 255.475 289.75 244.814 289.75 231.663C289.75 218.511 278.669 207.85 265 207.85C251.331 207.85 240.25 218.511 240.25 231.663C240.25 244.814 251.331 255.475 265 255.475Z" fill="#0A1520"/>
<path d="M261.7 252.3C275.369 252.3 286.45 241.639 286.45 228.488C286.45 215.336 275.369 204.675 261.7 204.675C248.031 204.675 236.95 215.336 236.95 228.488C236.95 241.639 248.031 252.3 261.7 252.3Z" fill="url(#paint1_linear_81_149)"/>
<path d="M260.986 232.249V215.885H262.035V232.249H260.986ZM263.767 221.287C263.716 220.771 263.496 220.37 263.109 220.085C262.721 219.799 262.194 219.657 261.53 219.657C261.078 219.657 260.697 219.721 260.385 219.848C260.074 219.972 259.836 220.145 259.67 220.366C259.508 220.588 259.427 220.839 259.427 221.12C259.418 221.355 259.467 221.559 259.574 221.734C259.684 221.909 259.836 222.06 260.028 222.188C260.219 222.311 260.441 222.42 260.692 222.514C260.944 222.603 261.212 222.68 261.498 222.744L262.674 223.025C263.245 223.153 263.769 223.323 264.246 223.537C264.724 223.75 265.137 224.012 265.486 224.323C265.836 224.634 266.106 225 266.298 225.422C266.494 225.844 266.594 226.328 266.599 226.873C266.594 227.674 266.39 228.369 265.985 228.957C265.584 229.541 265.005 229.995 264.246 230.319C263.492 230.638 262.582 230.798 261.517 230.798C260.46 230.798 259.54 230.636 258.756 230.312C257.976 229.988 257.366 229.509 256.927 228.874C256.493 228.235 256.265 227.444 256.243 226.502H258.922C258.952 226.941 259.077 227.308 259.299 227.602C259.525 227.892 259.825 228.111 260.2 228.26C260.579 228.405 261.008 228.478 261.485 228.478C261.954 228.478 262.361 228.409 262.706 228.273C263.055 228.137 263.326 227.947 263.518 227.704C263.709 227.461 263.805 227.182 263.805 226.867C263.805 226.573 263.718 226.326 263.543 226.125C263.373 225.925 263.121 225.755 262.789 225.614C262.461 225.473 262.058 225.346 261.581 225.23L260.155 224.872C259.052 224.604 258.18 224.184 257.541 223.613C256.902 223.042 256.584 222.273 256.589 221.306C256.584 220.513 256.795 219.821 257.221 219.228C257.652 218.636 258.242 218.174 258.992 217.841C259.742 217.509 260.594 217.343 261.549 217.343C262.52 217.343 263.368 217.509 264.093 217.841C264.822 218.174 265.388 218.636 265.793 219.228C266.198 219.821 266.407 220.507 266.42 221.287H263.767Z" fill="white"/>
<path opacity="0.16" d="M197.924 183.205C206.948 181.985 214.007 179.236 213.689 177.066C213.372 174.895 205.8 174.125 196.776 175.345C187.752 176.565 180.694 179.314 181.011 181.484C181.328 183.655 188.9 184.425 197.924 183.205Z" fill="white"/>
<path opacity="0.32" d="M251.8 221.712C254.957 219.959 256.777 217.306 255.866 215.788C254.954 214.269 251.657 214.459 248.5 216.213C245.343 217.966 243.523 220.619 244.434 222.138C245.345 223.656 248.643 223.466 251.8 221.712Z" fill="white"/>
</g>
<defs>
<filter id="filter0_f_81_149" x="-173" y="-190" width="782" height="844" filterUnits="userSpaceOnUse" color-interpolation-filters="sRGB">
<feFlood flood-opacity="0" result="BackgroundImageFix"/>
<feBlend mode="normal" in="SourceGraphic" in2="BackgroundImageFix" result="shape"/>
<feGaussianBlur stdDeviation="60" result="effect1_foregroundBlur_81_149"/>
</filter>
<linearGradient id="paint0_linear_81_149" x1="222.1" y1="169.75" x2="222.1" y2="239.6" gradientUnits="userSpaceOnUse">
<stop stop-color="#FF7129"/>
<stop offset="1" stop-color="#F38E5B"/>
</linearGradient>
<linearGradient id="paint1_linear_81_149" x1="236.95" y1="204.675" x2="260.206" y2="253.019" gradientUnits="userSpaceOnUse">
<stop stop-color="#A8D8C0"/>
<stop offset="1" stop-color="#2E7D52"/>
</linearGradient>
<clipPath id="clip0_81_149">
<rect width="464" height="464" fill="white"/>
</clipPath>
</defs>
</svg>
