<svg width="464" height="464" viewBox="0 0 464 464" fill="none" xmlns="http://www.w3.org/2000/svg">
<g clip-path="url(#clip0_81_148)">
<rect width="464" height="464" fill="white"/>
<mask id="mask0_81_148" style="mask-type:alpha" maskUnits="userSpaceOnUse" x="0" y="0" width="464" height="464">
<rect width="464" height="464" fill="white"/>
</mask>
<g mask="url(#mask0_81_148)">
<g filter="url(#filter0_f_81_148)">
<mask id="mask1_81_148" style="mask-type:alpha" maskUnits="userSpaceOnUse" x="-53" y="-70" width="542" height="604">
<rect x="-53" y="-70" width="542" height="604" fill="#D9D9D9"/>
</mask>
<g mask="url(#mask1_81_148)">
<ellipse cx="272.317" cy="265.194" rx="272.752" ry="268.806" fill="#305240"/>
<ellipse cx="45.7048" cy="110.289" rx="264.575" ry="279.22" fill="#6BAF85"/>
<ellipse cx="368.101" cy="-4.26282" rx="176.968" ry="184.194" fill="#2E7D52"/>
<ellipse cx="448.7" cy="556.78" rx="257.567" ry="290.935" fill="#7DA554"/>
<ellipse cx="31.5668" cy="411.935" rx="257.567" ry="290.935" fill="#8ECFB2"/>
</g>
</g>
</g>
<rect x="82.5" y="82.5" width="299" height="299" rx="19.5" fill="#FFFEFE" fill-opacity="0.2" stroke="white"/>
<path d="M211.065 306.117C210.561 306.117 210.118 305.994 209.737 305.748C209.359 305.502 209.065 305.172 208.855 304.758C208.645 304.341 208.54 303.879 208.54 303.372V299.7H209.638V303.372C209.638 303.672 209.694 303.948 209.805 304.2C209.919 304.449 210.081 304.648 210.291 304.798C210.504 304.945 210.762 305.019 211.065 305.019C211.371 305.019 211.629 304.945 211.839 304.798C212.049 304.648 212.208 304.449 212.316 304.2C212.427 303.948 212.482 303.672 212.482 303.372V299.7H213.58V303.372C213.58 303.753 213.52 304.11 213.4 304.443C213.28 304.773 213.109 305.064 212.887 305.316C212.665 305.568 212.4 305.764 212.091 305.905C211.785 306.046 211.443 306.117 211.065 306.117ZM215.812 306V299.7H218.062C218.404 299.7 218.713 299.785 218.989 299.956C219.268 300.127 219.488 300.357 219.65 300.645C219.812 300.933 219.893 301.249 219.893 301.594C219.893 301.948 219.809 302.269 219.641 302.557C219.476 302.842 219.254 303.07 218.975 303.241C218.696 303.409 218.392 303.493 218.062 303.493H216.91V306H215.812ZM216.91 302.395H217.945C218.101 302.395 218.243 302.356 218.372 302.278C218.501 302.2 218.603 302.095 218.678 301.963C218.756 301.831 218.795 301.684 218.795 301.522C218.795 301.357 218.756 301.209 218.678 301.077C218.603 300.945 218.501 300.84 218.372 300.762C218.243 300.684 218.101 300.645 217.945 300.645H216.91V302.395ZM221.976 306V299.7H223.074V304.902H225.698V306H221.976ZM230.38 306.117C229.954 306.117 229.553 306.033 229.178 305.865C228.803 305.694 228.473 305.458 228.188 305.158C227.903 304.858 227.68 304.512 227.518 304.119C227.356 303.723 227.275 303.3 227.275 302.85C227.275 302.4 227.356 301.978 227.518 301.585C227.68 301.189 227.903 300.841 228.188 300.541C228.473 300.241 228.803 300.007 229.178 299.839C229.553 299.668 229.954 299.583 230.38 299.583C230.809 299.583 231.211 299.668 231.586 299.839C231.961 300.007 232.291 300.241 232.576 300.541C232.861 300.841 233.083 301.189 233.242 301.585C233.404 301.978 233.485 302.4 233.485 302.85C233.485 303.3 233.404 303.723 233.242 304.119C233.083 304.512 232.861 304.858 232.576 305.158C232.291 305.458 231.961 305.694 231.586 305.865C231.211 306.033 230.809 306.117 230.38 306.117ZM230.38 305.019C230.656 305.019 230.915 304.962 231.158 304.848C231.401 304.734 231.614 304.578 231.797 304.38C231.983 304.179 232.127 303.948 232.229 303.687C232.334 303.426 232.387 303.147 232.387 302.85C232.387 302.553 232.334 302.274 232.229 302.013C232.124 301.749 231.979 301.518 231.793 301.32C231.61 301.122 231.397 300.966 231.154 300.852C230.914 300.738 230.656 300.681 230.38 300.681C230.104 300.681 229.844 300.738 229.601 300.852C229.358 300.966 229.144 301.123 228.958 301.324C228.775 301.522 228.631 301.752 228.526 302.013C228.424 302.274 228.373 302.553 228.373 302.85C228.373 303.15 228.425 303.43 228.53 303.691C228.635 303.952 228.779 304.183 228.962 304.384C229.148 304.582 229.361 304.738 229.601 304.852C229.844 304.963 230.104 305.019 230.38 305.019ZM237.272 299.7H238.536L240.827 306H239.661L239.256 304.884H236.556L236.151 306H234.986L237.272 299.7ZM236.957 303.786H238.851L237.902 301.189L236.957 303.786ZM242.842 306V299.7H244.93C245.365 299.7 245.771 299.782 246.149 299.947C246.53 300.109 246.865 300.336 247.153 300.627C247.444 300.915 247.67 301.249 247.832 301.63C247.997 302.008 248.08 302.415 248.08 302.85C248.08 303.285 247.997 303.693 247.832 304.074C247.67 304.452 247.444 304.786 247.153 305.077C246.865 305.365 246.53 305.592 246.149 305.757C245.771 305.919 245.365 306 244.93 306H242.842ZM243.94 304.902H244.93C245.209 304.902 245.471 304.849 245.717 304.744C245.966 304.636 246.185 304.489 246.374 304.303C246.563 304.114 246.712 303.897 246.82 303.651C246.928 303.402 246.982 303.135 246.982 302.85C246.982 302.565 246.928 302.299 246.82 302.053C246.712 301.807 246.563 301.59 246.374 301.401C246.185 301.212 245.968 301.065 245.722 300.96C245.476 300.852 245.212 300.798 244.93 300.798H243.94V304.902Z" fill="white"/>
<path opacity="0.18" d="M221.025 253.137C237.925 253.137 251.625 250.468 251.625 247.175C251.625 243.882 237.925 241.212 221.025 241.212C204.125 241.212 190.425 243.882 190.425 247.175C190.425 250.468 204.125 253.137 221.025 253.137Z" fill="#0A1520"/>
<path d="M186.6 147.8V241.213C186.6 246.513 189.15 249.163 194.25 249.163H247.8C252.9 249.163 255.45 246.513 255.45 241.213V171.65L232.5 147.8H186.6Z" fill="url(#paint0_linear_81_148)"/>
<path opacity="0.6" d="M232.5 147.8L255.45 171.65H232.5V147.8Z" fill="#0A1F38"/>
<path opacity="0.4" d="M232.5 147.8V171.65H255.45" stroke="white" stroke-width="0.5625"/>
<path opacity="0.5" d="M225.328 189.538H203.334C202.542 189.538 201.9 190.205 201.9 191.028C201.9 191.851 202.542 192.519 203.334 192.519H225.328C226.12 192.519 226.763 191.851 226.763 191.028C226.763 190.205 226.12 189.538 225.328 189.538Z" fill="white"/>
<path opacity="0.5" d="M238.716 199.475H203.334C202.542 199.475 201.9 200.142 201.9 200.966C201.9 201.789 202.542 202.456 203.334 202.456H238.716C239.508 202.456 240.15 201.789 240.15 200.966C240.15 200.142 239.508 199.475 238.716 199.475Z" fill="white"/>
<path opacity="0.5" d="M219.591 209.413H203.334C202.542 209.413 201.9 210.08 201.9 210.903C201.9 211.726 202.542 212.394 203.334 212.394H219.591C220.383 212.394 221.025 211.726 221.025 210.903C221.025 210.08 220.383 209.413 219.591 209.413Z" fill="white"/>
<path opacity="0.15" d="M272.5 264C284.926 264 295 253.926 295 241.5C295 229.074 284.926 219 272.5 219C260.074 219 250 229.074 250 241.5C250 253.926 260.074 264 272.5 264Z" fill="#0A1520"/>
<path d="M267.5 259C279.926 259 290 248.926 290 236.5C290 224.074 279.926 214 267.5 214C255.074 214 245 224.074 245 236.5C245 248.926 255.074 259 267.5 259Z" fill="url(#paint1_linear_81_148)"/>
<path d="M268 250V226" stroke="white" stroke-width="2.8125" stroke-linecap="round"/>
<path d="M260 232L268 223L276 232" stroke="white" stroke-width="2.8125" stroke-linecap="round" stroke-linejoin="round"/>
<path opacity="0.18" d="M206.102 168.249C213.05 165.621 217.657 160.564 216.393 156.954C215.128 153.344 208.471 152.548 201.523 155.176C194.575 157.804 189.968 162.861 191.232 166.471C192.497 170.081 199.154 170.877 206.102 168.249Z" fill="white"/>
<path opacity="0.32" d="M257.871 227.502C260.899 225.299 262.372 222.055 261.16 220.256C259.949 218.458 256.511 218.786 253.483 220.99C250.455 223.194 248.982 226.438 250.194 228.236C251.406 230.034 254.843 229.706 257.871 227.502Z" fill="white"/>
</g>
<defs>
<filter id="filter0_f_81_148" x="-173" y="-190" width="782" height="844" filterUnits="userSpaceOnUse" color-interpolation-filters="sRGB">
<feFlood flood-opacity="0" result="BackgroundImageFix"/>
<feBlend mode="normal" in="SourceGraphic" in2="BackgroundImageFix" result="shape"/>
<feGaussianBlur stdDeviation="60" result="effect1_foregroundBlur_81_148"/>
</filter>
<linearGradient id="paint0_linear_81_148" x1="221.025" y1="147.8" x2="221.025" y2="249.163" gradientUnits="userSpaceOnUse">
<stop offset="0.485577" stop-color="#2E7D52"/>
<stop offset="1" stop-color="#6CCA97"/>
</linearGradient>
<linearGradient id="paint1_linear_81_148" x1="245" y1="214" x2="267.5" y2="259" gradientUnits="userSpaceOnUse">
<stop stop-color="#A8D8C0"/>
<stop offset="1" stop-color="#2E7D52"/>
</linearGradient>
<clipPath id="clip0_81_148">
<rect width="464" height="464" fill="white"/>
</clipPath>
</defs>
</svg>
